<?xml version="1.0" encoding="UTF-8" standalone="no"?><svg xmlns="http://www.w3.org/2000/svg" xmlns:xlink="http://www.w3.org/1999/xlink" contentStyleType="text/css" height="306px" preserveAspectRatio="none" style="width:895px;height:306px;background:#FFFFFF;" version="1.1" viewBox="0 0 895 306" width="895px" zoomAndPan="magnify"><defs/><g><line style="stroke:#333333;stroke-width:0.5;" x1="10" x2="10" y1="10" y2="276.2422"/><line style="stroke:#333333;stroke-width:0.5;" x1="878" x2="878" y1="10" y2="276.2422"/><rect fill="#FFD700" height="266.2422" style="stroke:none;stroke-width:1.0;" width="120" x="273" y="10"/><rect fill="#ADD8E6" height="266.2422" style="stroke:none;stroke-width:1.0;" width="120" x="543" y="10"/><line style="stroke:#333333;stroke-width:0.5;stroke-dasharray:3.0,5.0;" x1="93" x2="93" y1="10" y2="276.2422"/><line style="stroke:#333333;stroke-width:0.5;stroke-dasharray:3.0,5.0;" x1="243" x2="243" y1="10" y2="276.2422"/><line style="stroke:#333333;stroke-width:0.5;stroke-dasharray:3.0,5.0;" x1="393" x2="393" y1="10" y2="276.2422"/><line style="stroke:#333333;stroke-width:0.5;stroke-dasharray:3.0,5.0;" x1="543" x2="543" y1="10" y2="276.2422"/><line style="stroke:#333333;stroke-width:0.5;stroke-dasharray:3.0,5.0;" x1="693" x2="693" y1="10" y2="276.2422"/><line style="stroke:#333333;stroke-width:0.5;stroke-dasharray:3.0,5.0;" x1="843" x2="843" y1="10" y2="276.2422"/><line style="stroke:#333333;stroke-width:0.5;" x1="10" x2="878" y1="10" y2="10"/><line style="stroke:#006400;stroke-width:1.5;" x1="93" x2="93" y1="32.1328" y2="46.1328"/><line style="stroke:#006400;stroke-width:1.5;" x1="93" x2="108" y1="32.1328" y2="32.1328"/><line style="stroke:#006400;stroke-width:1.5;" x1="108" x2="108" y1="32.1328" y2="46.1328"/><line style="stroke:#006400;stroke-width:1.5;" x1="108" x2="123" y1="46.1328" y2="46.1328"/><line style="stroke:#006400;stroke-width:1.5;" x1="123" x2="123" y1="32.1328" y2="46.1328"/><line style="stroke:#006400;stroke-width:1.5;" x1="123" x2="138" y1="32.1328" y2="32.1328"/><line style="stroke:#006400;stroke-width:1.5;" x1="138" x2="138" y1="32.1328" y2="46.1328"/><line style="stroke:#006400;stroke-width:1.5;" x1="138" x2="153" y1="46.1328" y2="46.1328"/><line style="stroke:#006400;stroke-width:1.5;" x1="153" x2="153" y1="32.1328" y2="46.1328"/><line style="stroke:#006400;stroke-width:1.5;" x1="153" x2="168" y1="32.1328" y2="32.1328"/><line style="stroke:#006400;stroke-width:1.5;" x1="168" x2="168" y1="32.1328" y2="46.1328"/><line style="stroke:#006400;stroke-width:1.5;" x1="168" x2="183" y1="46.1328" y2="46.1328"/><line style="stroke:#006400;stroke-width:1.5;" x1="183" x2="183" y1="32.1328" y2="46.1328"/><line style="stroke:#006400;stroke-width:1.5;" x1="183" x2="198" y1="32.1328" y2="32.1328"/><line style="stroke:#006400;stroke-width:1.5;" x1="198" x2="198" y1="32.1328" y2="46.1328"/><line style="stroke:#006400;stroke-width:1.5;" x1="198" x2="213" y1="46.1328" y2="46.1328"/><line style="stroke:#006400;stroke-width:1.5;" x1="213" x2="213" y1="32.1328" y2="46.1328"/><line style="stroke:#006400;stroke-width:1.5;" x1="213" x2="228" y1="32.1328" y2="32.1328"/><line style="stroke:#006400;stroke-width:1.5;" x1="228" x2="228" y1="32.1328" y2="46.1328"/><line style="stroke:#006400;stroke-width:1.5;" x1="228" x2="243" y1="46.1328" y2="46.1328"/><line style="stroke:#006400;stroke-width:1.5;" x1="243" x2="243" y1="32.1328" y2="46.1328"/><line style="stroke:#006400;stroke-width:1.5;" x1="243" x2="258" y1="32.1328" y2="32.1328"/><line style="stroke:#006400;stroke-width:1.5;" x1="258" x2="258" y1="32.1328" y2="46.1328"/><line style="stroke:#006400;stroke-width:1.5;" x1="258" x2="273" y1="46.1328" y2="46.1328"/><line style="stroke:#006400;stroke-width:1.5;" x1="273" x2="273" y1="32.1328" y2="46.1328"/><line style="stroke:#006400;stroke-width:1.5;" x1="273" x2="288" y1="32.1328" y2="32.1328"/><line style="stroke:#006400;stroke-width:1.5;" x1="288" x2="288" y1="32.1328" y2="46.1328"/><line style="stroke:#006400;stroke-width:1.5;" x1="288" x2="303" y1="46.1328" y2="46.1328"/><line style="stroke:#006400;stroke-width:1.5;" x1="303" x2="303" y1="32.1328" y2="46.1328"/><line style="stroke:#006400;stroke-width:1.5;" x1="303" x2="318" y1="32.1328" y2="32.1328"/><line style="stroke:#006400;stroke-width:1.5;" x1="318" x2="318" y1="32.1328" y2="46.1328"/><line style="stroke:#006400;stroke-width:1.5;" x1="318" x2="333" y1="46.1328" y2="46.1328"/><line style="stroke:#006400;stroke-width:1.5;" x1="333" x2="333" y1="32.1328" y2="46.1328"/><line style="stroke:#006400;stroke-width:1.5;" x1="333" x2="348" y1="32.1328" y2="32.1328"/><line style="stroke:#006400;stroke-width:1.5;" x1="348" x2="348" y1="32.1328" y2="46.1328"/><line style="stroke:#006400;stroke-width:1.5;" x1="348" x2="363" y1="46.1328" y2="46.1328"/><line style="stroke:#006400;stroke-width:1.5;" x1="363" x2="363" y1="32.1328" y2="46.1328"/><line style="stroke:#006400;stroke-width:1.5;" x1="363" x2="378" y1="32.1328" y2="32.1328"/><line style="stroke:#006400;stroke-width:1.5;" x1="378" x2="378" y1="32.1328" y2="46.1328"/><line style="stroke:#006400;stroke-width:1.5;" x1="378" x2="393" y1="46.1328" y2="46.1328"/><line style="stroke:#006400;stroke-width:1.5;" x1="393" x2="393" y1="32.1328" y2="46.1328"/><line style="stroke:#006400;stroke-width:1.5;" x1="393" x2="408" y1="32.1328" y2="32.1328"/><line style="stroke:#006400;stroke-width:1.5;" x1="408" x2="408" y1="32.1328" y2="46.1328"/><line style="stroke:#006400;stroke-width:1.5;" x1="408" x2="423" y1="46.1328" y2="46.1328"/><line style="stroke:#006400;stroke-width:1.5;" x1="423" x2="423" y1="32.1328" y2="46.1328"/><line style="stroke:#006400;stroke-width:1.5;" x1="423" x2="438" y1="32.1328" y2="32.1328"/><line style="stroke:#006400;stroke-width:1.5;" x1="438" x2="438" y1="32.1328" y2="46.1328"/><line style="stroke:#006400;stroke-width:1.5;" x1="438" x2="453" y1="46.1328" y2="46.1328"/><line style="stroke:#006400;stroke-width:1.5;" x1="453" x2="453" y1="32.1328" y2="46.1328"/><line style="stroke:#006400;stroke-width:1.5;" x1="453" x2="468" y1="32.1328" y2="32.1328"/><line style="stroke:#006400;stroke-width:1.5;" x1="468" x2="468" y1="32.1328" y2="46.1328"/><line style="stroke:#006400;stroke-width:1.5;" x1="468" x2="483" y1="46.1328" y2="46.1328"/><line style="stroke:#006400;stroke-width:1.5;" x1="483" x2="483" y1="32.1328" y2="46.1328"/><line style="stroke:#006400;stroke-width:1.5;" x1="483" x2="498" y1="32.1328" y2="32.1328"/><line style="stroke:#006400;stroke-width:1.5;" x1="498" x2="498" y1="32.1328" y2="46.1328"/><line style="stroke:#006400;stroke-width:1.5;" x1="498" x2="513" y1="46.1328" y2="46.1328"/><line style="stroke:#006400;stroke-width:1.5;" x1="513" x2="513" y1="32.1328" y2="46.1328"/><line style="stroke:#006400;stroke-width:1.5;" x1="513" x2="528" y1="32.1328" y2="32.1328"/><line style="stroke:#006400;stroke-width:1.5;" x1="528" x2="528" y1="32.1328" y2="46.1328"/><line style="stroke:#006400;stroke-width:1.5;" x1="528" x2="543" y1="46.1328" y2="46.1328"/><line style="stroke:#006400;stroke-width:1.5;" x1="543" x2="543" y1="32.1328" y2="46.1328"/><line style="stroke:#006400;stroke-width:1.5;" x1="543" x2="558" y1="32.1328" y2="32.1328"/><line style="stroke:#006400;stroke-width:1.5;" x1="558" x2="558" y1="32.1328" y2="46.1328"/><line style="stroke:#006400;stroke-width:1.5;" x1="558" x2="573" y1="46.1328" y2="46.1328"/><line style="stroke:#006400;stroke-width:1.5;" x1="573" x2="573" y1="32.1328" y2="46.1328"/><line style="stroke:#006400;stroke-width:1.5;" x1="573" x2="588" y1="32.1328" y2="32.1328"/><line style="stroke:#006400;stroke-width:1.5;" x1="588" x2="588" y1="32.1328" y2="46.1328"/><line style="stroke:#006400;stroke-width:1.5;" x1="588" x2="603" y1="46.1328" y2="46.1328"/><line style="stroke:#006400;stroke-width:1.5;" x1="603" x2="603" y1="32.1328" y2="46.1328"/><line style="stroke:#006400;stroke-width:1.5;" x1="603" x2="618" y1="32.1328" y2="32.1328"/><line style="stroke:#006400;stroke-width:1.5;" x1="618" x2="618" y1="32.1328" y2="46.1328"/><line style="stroke:#006400;stroke-width:1.5;" x1="618" x2="633" y1="46.1328" y2="46.1328"/><line style="stroke:#006400;stroke-width:1.5;" x1="633" x2="633" y1="32.1328" y2="46.1328"/><line style="stroke:#006400;stroke-width:1.5;" x1="633" x2="648" y1="32.1328" y2="32.1328"/><line style="stroke:#006400;stroke-width:1.5;" x1="648" x2="648" y1="32.1328" y2="46.1328"/><line style="stroke:#006400;stroke-width:1.5;" x1="648" x2="663" y1="46.1328" y2="46.1328"/><line style="stroke:#006400;stroke-width:1.5;" x1="663" x2="663" y1="32.1328" y2="46.1328"/><line style="stroke:#006400;stroke-width:1.5;" x1="663" x2="678" y1="32.1328" y2="32.1328"/><line style="stroke:#006400;stroke-width:1.5;" x1="678" x2="678" y1="32.1328" y2="46.1328"/><line style="stroke:#006400;stroke-width:1.5;" x1="678" x2="693" y1="46.1328" y2="46.1328"/><line style="stroke:#006400;stroke-width:1.5;" x1="693" x2="693" y1="32.1328" y2="46.1328"/><line style="stroke:#006400;stroke-width:1.5;" x1="693" x2="708" y1="32.1328" y2="32.1328"/><line style="stroke:#006400;stroke-width:1.5;" x1="708" x2="708" y1="32.1328" y2="46.1328"/><line style="stroke:#006400;stroke-width:1.5;" x1="708" x2="723" y1="46.1328" y2="46.1328"/><line style="stroke:#006400;stroke-width:1.5;" x1="723" x2="723" y1="32.1328" y2="46.1328"/><line style="stroke:#006400;stroke-width:1.5;" x1="723" x2="738" y1="32.1328" y2="32.1328"/><line style="stroke:#006400;stroke-width:1.5;" x1="738" x2="738" y1="32.1328" y2="46.1328"/><line style="stroke:#006400;stroke-width:1.5;" x1="738" x2="753" y1="46.1328" y2="46.1328"/><line style="stroke:#006400;stroke-width:1.5;" x1="753" x2="753" y1="32.1328" y2="46.1328"/><line style="stroke:#006400;stroke-width:1.5;" x1="753" x2="768" y1="32.1328" y2="32.1328"/><line style="stroke:#006400;stroke-width:1.5;" x1="768" x2="768" y1="32.1328" y2="46.1328"/><line style="stroke:#006400;stroke-width:1.5;" x1="768" x2="783" y1="46.1328" y2="46.1328"/><line style="stroke:#006400;stroke-width:1.5;" x1="783" x2="783" y1="32.1328" y2="46.1328"/><line style="stroke:#006400;stroke-width:1.5;" x1="783" x2="798" y1="32.1328" y2="32.1328"/><line style="stroke:#006400;stroke-width:1.5;" x1="798" x2="798" y1="32.1328" y2="46.1328"/><line style="stroke:#006400;stroke-width:1.5;" x1="798" x2="813" y1="46.1328" y2="46.1328"/><line style="stroke:#006400;stroke-width:1.5;" x1="813" x2="813" y1="32.1328" y2="46.1328"/><line style="stroke:#006400;stroke-width:1.5;" x1="813" x2="828" y1="32.1328" y2="32.1328"/><line style="stroke:#006400;stroke-width:1.5;" x1="828" x2="828" y1="32.1328" y2="46.1328"/><line style="stroke:#006400;stroke-width:1.5;" x1="828" x2="843" y1="46.1328" y2="46.1328"/><line style="stroke:#006400;stroke-width:1.5;" x1="843" x2="843" y1="32.1328" y2="46.1328"/><line style="stroke:#006400;stroke-width:1.5;" x1="843" x2="858" y1="32.1328" y2="32.1328"/><line style="stroke:#006400;stroke-width:1.5;" x1="858" x2="858" y1="32.1328" y2="46.1328"/><line style="stroke:#006400;stroke-width:1.5;" x1="858" x2="873" y1="46.1328" y2="46.1328"/><line style="stroke:#006400;stroke-width:1.5;" x1="873" x2="873" y1="32.1328" y2="46.1328"/><line style="stroke:#006400;stroke-width:1.5;" x1="873" x2="873" y1="32.1328" y2="32.1328"/><line style="stroke:#333333;stroke-width:0.5;" x1="10" x2="878" y1="54.1328" y2="54.1328"/><text fill="#333333" font-family="sans-serif" font-size="14" font-weight="bold" lengthAdjust="spacing" textLength="47" x="15" y="74.4238">enable</text><line style="stroke:#006400;stroke-width:2.0;" x1="93" x2="93" y1="76.1328" y2="76.1328"/><line style="stroke:#006400;stroke-width:2.0;" x1="93" x2="183" y1="76.1328" y2="76.1328"/><line style="stroke:#006400;stroke-width:2.0;" x1="183" x2="183" y1="62.1328" y2="76.1328"/><line style="stroke:#006400;stroke-width:2.0;" x1="183" x2="693" y1="62.1328" y2="62.1328"/><line style="stroke:#006400;stroke-width:2.0;" x1="693" x2="693" y1="62.1328" y2="76.1328"/><line style="stroke:#006400;stroke-width:2.0;" x1="693" x2="873" y1="76.1328" y2="76.1328"/><line style="stroke:#333333;stroke-width:0.5;" x1="10" x2="878" y1="84.1328" y2="84.1328"/><text fill="#333333" font-family="sans-serif" font-size="14" font-weight="bold" lengthAdjust="spacing" textLength="31" x="15" y="104.4238">R/W</text><line style="stroke:#006400;stroke-width:2.0;" x1="93" x2="93" y1="106.1328" y2="106.1328"/><line style="stroke:#006400;stroke-width:2.0;" x1="93" x2="273" y1="106.1328" y2="106.1328"/><line style="stroke:#006400;stroke-width:2.0;" x1="273" x2="273" y1="92.1328" y2="106.1328"/><line style="stroke:#006400;stroke-width:2.0;" x1="273" x2="393" y1="92.1328" y2="92.1328"/><line style="stroke:#006400;stroke-width:2.0;" x1="393" x2="393" y1="92.1328" y2="106.1328"/><line style="stroke:#006400;stroke-width:2.0;" x1="393" x2="423" y1="106.1328" y2="106.1328"/><line style="stroke:#006400;stroke-width:2.0;" x1="423" x2="873" y1="106.1328" y2="106.1328"/><line style="stroke:#333333;stroke-width:0.5;" x1="10" x2="878" y1="114.1328" y2="114.1328"/><text fill="#333333" font-family="sans-serif" font-size="14" font-weight="bold" lengthAdjust="spacing" textLength="73" x="15" y="134.4238">data Valid</text><line style="stroke:#006400;stroke-width:2.0;" x1="93" x2="93" y1="136.1328" y2="136.1328"/><line style="stroke:#006400;stroke-width:2.0;" x1="93" x2="243" y1="136.1328" y2="136.1328"/><line style="stroke:#006400;stroke-width:2.0;" x1="243" x2="243" y1="122.1328" y2="136.1328"/><line style="stroke:#006400;stroke-width:2.0;" x1="243" x2="393" y1="122.1328" y2="122.1328"/><line style="stroke:#006400;stroke-width:2.0;" x1="393" x2="393" y1="122.1328" y2="136.1328"/><line style="stroke:#006400;stroke-width:2.0;" x1="393" x2="453" y1="136.1328" y2="136.1328"/><line style="stroke:#006400;stroke-width:2.0;" x1="453" x2="453" y1="122.1328" y2="136.1328"/><line style="stroke:#006400;stroke-width:2.0;" x1="453" x2="693" y1="122.1328" y2="122.1328"/><line style="stroke:#006400;stroke-width:2.0;" x1="693" x2="693" y1="122.1328" y2="136.1328"/><line style="stroke:#006400;stroke-width:2.0;" x1="693" x2="873" y1="136.1328" y2="136.1328"/><line style="stroke:#333333;stroke-width:0.5;" x1="10" x2="878" y1="144.1328" y2="144.1328"/><text fill="#333333" font-family="sans-serif" font-size="14" font-weight="bold" lengthAdjust="spacing" textLength="57" x="15" y="157.668">dataBus</text><line style="stroke:#333333;stroke-width:0.5;" x1="10" x2="73" y1="161.6211" y2="161.6211"/><line style="stroke:#333333;stroke-width:0.5;" x1="73" x2="83" y1="161.6211" y2="144.1328"/><polygon fill="#E2E2F0" points="105,185.7539,201,185.7539,213,197.7539,201,209.7539,105,209.7539,93,197.7539" style="stroke:#006400;stroke-width:1.5;"/><polygon fill="#E2E2F0" points="225,185.7539,411,185.7539,423,197.7539,411,209.7539,225,209.7539,213,197.7539" style="stroke:#006400;stroke-width:1.5;"/><polygon fill="#E2E2F0" points="435,185.7539,471,185.7539,483,197.7539,471,209.7539,435,209.7539,423,197.7539" style="stroke:#006400;stroke-width:1.5;"/><polygon fill="#E2E2F0" points="495,185.7539,711,185.7539,723,197.7539,711,209.7539,495,209.7539,483,197.7539" style="stroke:#006400;stroke-width:1.5;"/><polygon fill="#E2E2F0" points="735,185.7539,873,185.7539,873,209.7539,735,209.7539,723,197.7539" style="stroke:#E2E2F0;stroke-width:1.5;"/><path d="M873,185.7539 L735,185.7539 L723,197.7539 L735,209.7539 L873,209.7539 " fill="#E2E2F0" style="stroke:#006400;stroke-width:1.5;"/><text fill="#333333" font-family="sans-serif" font-size="12" font-weight="bold" lengthAdjust="spacing" textLength="23" x="141.5" y="202.2891">0x0</text><text fill="#333333" font-family="sans-serif" font-size="12" font-weight="bold" lengthAdjust="spacing" textLength="80" x="278" y="202.2891">0xDEADBEEF</text><text fill="#333333" font-family="sans-serif" font-size="12" font-weight="bold" lengthAdjust="spacing" textLength="23" x="441.5" y="202.2891">0x0</text><text fill="#333333" font-family="sans-serif" font-size="12" font-weight="bold" lengthAdjust="spacing" textLength="43" x="581.5" y="202.2891">0xFFFF</text><text fill="#333333" font-family="sans-serif" font-size="12" font-weight="bold" lengthAdjust="spacing" textLength="23" x="735" y="202.2891">0x0</text><line style="stroke:#8B0000;stroke-width:1.5;" x1="243" x2="393" y1="176.1875" y2="176.1875"/><polygon fill="#8B0000" points="250.5175,173.4513,250.5175,178.9237,243,176.1875" style="stroke:#8B0000;stroke-width:1.0;"/><polygon fill="#8B0000" points="385.4825,178.9237,385.4825,173.4513,393,176.1875" style="stroke:#8B0000;stroke-width:1.0;"/><text fill="#8B0000" font-family="sans-serif" font-size="12" lengthAdjust="spacing" textLength="61" x="287.5" y="168.6563">setup time</text><line style="stroke:#333333;stroke-width:0.5;" x1="10" x2="878" y1="219.7539" y2="219.7539"/><text fill="#333333" font-family="sans-serif" font-size="14" font-weight="bold" lengthAdjust="spacing" textLength="87" x="15" y="233.2891">address bus</text><line style="stroke:#333333;stroke-width:0.5;" x1="10" x2="103" y1="237.2422" y2="237.2422"/><line style="stroke:#333333;stroke-width:0.5;" x1="103" x2="113" y1="237.2422" y2="219.7539"/><polygon fill="#E2E2F0" points="105,242.2422,411,242.2422,423,254.2422,411,266.2422,105,266.2422,93,254.2422" style="stroke:#006400;stroke-width:1.5;"/><polygon fill="#E2E2F0" points="435,242.2422,873,242.2422,873,266.2422,435,266.2422,423,254.2422" style="stroke:#E2E2F0;stroke-width:1.5;"/><path d="M873,242.2422 L435,242.2422 L423,254.2422 L435,266.2422 L873,266.2422 " fill="#E2E2F0" style="stroke:#006400;stroke-width:1.5;"/><text fill="#333333" font-family="sans-serif" font-size="12" font-weight="bold" lengthAdjust="spacing" textLength="36" x="240" y="258.7773">0x03f</text><text fill="#333333" font-family="sans-serif" font-size="12" font-weight="bold" lengthAdjust="spacing" textLength="31" x="435" y="258.7773">0x23</text><line style="stroke:#333333;stroke-width:2.0;" x1="93" x2="93" y1="276.2422" y2="281.2422"/><line style="stroke:#333333;stroke-width:2.0;" x1="243" x2="243" y1="276.2422" y2="281.2422"/><line style="stroke:#333333;stroke-width:2.0;" x1="393" x2="393" y1="276.2422" y2="281.2422"/><line style="stroke:#333333;stroke-width:2.0;" x1="543" x2="543" y1="276.2422" y2="281.2422"/><line style="stroke:#333333;stroke-width:2.0;" x1="693" x2="693" y1="276.2422" y2="281.2422"/><line style="stroke:#333333;stroke-width:2.0;" x1="843" x2="843" y1="276.2422" y2="281.2422"/><line style="stroke:#333333;stroke-width:2.0;" x1="93" x2="843" y1="276.2422" y2="276.2422"/><text fill="#333333" font-family="sans-serif" font-size="11" lengthAdjust="spacing" textLength="7" x="89.5" y="292.877">0</text><text fill="#333333" font-family="sans-serif" font-size="11" lengthAdjust="spacing" textLength="7" x="239.5" y="292.877">5</text><text fill="#333333" font-family="sans-serif" font-size="11" lengthAdjust="spacing" textLength="14" x="386" y="292.877">10</text><text fill="#333333" font-family="sans-serif" font-size="11" lengthAdjust="spacing" textLength="14" x="536" y="292.877">15</text><text fill="#333333" font-family="sans-serif" font-size="11" lengthAdjust="spacing" textLength="14" x="686" y="292.877">20</text><text fill="#333333" font-family="sans-serif" font-size="11" lengthAdjust="spacing" textLength="14" x="836" y="292.877">25</text><line style="stroke:#00008B;stroke-width:1.5;" x1="243" x2="423" y1="209.7539" y2="254.2422"/><polygon fill="#00008B" points="415.0456,255.0947,416.3586,249.7822,423,254.2422" style="stroke:#00008B;stroke-width:1.5;"/><text fill="#00008B" font-family="Serif" font-size="14" lengthAdjust="spacing" textLength="25" x="415.7021" y="248.9384">hold</text><line style="stroke:#333333;stroke-width:2.0;stroke-dasharray:4.0,4.0;" x1="273" x2="273" y1="10" y2="276.2422"/><line style="stroke:#333333;stroke-width:2.0;stroke-dasharray:4.0,4.0;" x1="393" x2="393" y1="10" y2="276.2422"/><text fill="#000000" font-family="sans-serif" font-size="12" lengthAdjust="spacing" textLength="29" x="276" y="23.6016">Write</text><line style="stroke:#333333;stroke-width:2.0;stroke-dasharray:4.0,4.0;" x1="543" x2="543" y1="10" y2="276.2422"/><line style="stroke:#333333;stroke-width:2.0;stroke-dasharray:4.0,4.0;" x1="663" x2="663" y1="10" y2="276.2422"/><text fill="#000000" font-family="sans-serif" font-size="12" lengthAdjust="spacing" textLength="30" x="546" y="23.6016">Read</text></g></svg>