<?xml version="1.0" encoding="UTF-8" standalone="no"?><svg xmlns="http://www.w3.org/2000/svg" xmlns:xlink="http://www.w3.org/1999/xlink" contentStyleType="text/css" height="291px" preserveAspectRatio="none" style="width:370px;height:291px;background:#FFFFFF;" version="1.1" viewBox="0 0 370 291" width="370px" zoomAndPan="magnify"><defs/><g><text fill="#000000" font-family="Serif" font-size="10" lengthAdjust="spacing" textLength="11" x="2.5" y="23.5">Tu</text><text fill="#000000" font-family="Serif" font-size="10" lengthAdjust="spacing" textLength="13" x="17.5" y="23.5">We</text><text fill="#000000" font-family="Serif" font-size="10" lengthAdjust="spacing" textLength="11" x="34.5" y="23.5">Th</text><text fill="#000000" font-family="Serif" font-size="10" lengthAdjust="spacing" textLength="9" x="51.5" y="23.5">Fr</text><text fill="#000000" font-family="Serif" font-size="10" lengthAdjust="spacing" textLength="10" x="67" y="23.5">Sa</text><text fill="#000000" font-family="Serif" font-size="10" lengthAdjust="spacing" textLength="11" x="82.5" y="23.5">Su</text><text fill="#000000" font-family="Serif" font-size="10" lengthAdjust="spacing" textLength="14" x="97" y="23.5">Mo</text><text fill="#000000" font-family="Serif" font-size="10" lengthAdjust="spacing" textLength="11" x="114.5" y="23.5">Tu</text><text fill="#000000" font-family="Serif" font-size="10" lengthAdjust="spacing" textLength="13" x="129.5" y="23.5">We</text><text fill="#000000" font-family="Serif" font-size="10" lengthAdjust="spacing" textLength="11" x="146.5" y="23.5">Th</text><text fill="#000000" font-family="Serif" font-size="10" lengthAdjust="spacing" textLength="9" x="163.5" y="23.5">Fr</text><text fill="#000000" font-family="Serif" font-size="10" lengthAdjust="spacing" textLength="10" x="179" y="23.5">Sa</text><text fill="#000000" font-family="Serif" font-size="10" lengthAdjust="spacing" textLength="11" x="194.5" y="23.5">Su</text><text fill="#000000" font-family="Serif" font-size="10" lengthAdjust="spacing" textLength="14" x="209" y="23.5">Mo</text><text fill="#000000" font-family="Serif" font-size="10" lengthAdjust="spacing" textLength="11" x="226.5" y="23.5">Tu</text><text fill="#000000" font-family="Serif" font-size="10" lengthAdjust="spacing" textLength="13" x="241.5" y="23.5">We</text><text fill="#000000" font-family="Serif" font-size="10" lengthAdjust="spacing" textLength="11" x="258.5" y="23.5">Th</text><text fill="#000000" font-family="Serif" font-size="10" lengthAdjust="spacing" textLength="9" x="275.5" y="23.5">Fr</text><text fill="#000000" font-family="Serif" font-size="10" lengthAdjust="spacing" textLength="10" x="291" y="23.5">Sa</text><text fill="#000000" font-family="Serif" font-size="10" lengthAdjust="spacing" textLength="11" x="306.5" y="23.5">Su</text><text fill="#000000" font-family="Serif" font-size="10" lengthAdjust="spacing" textLength="14" x="321" y="23.5">Mo</text><text fill="#000000" font-family="Serif" font-size="10" lengthAdjust="spacing" textLength="11" x="338.5" y="23.5">Tu</text><text fill="#000000" font-family="Serif" font-size="10" lengthAdjust="spacing" textLength="13" x="353.5" y="23.5">We</text><text fill="#000000" font-family="Serif" font-size="10" lengthAdjust="spacing" textLength="5" x="5.5" y="35.5">1</text><text fill="#000000" font-family="Serif" font-size="10" lengthAdjust="spacing" textLength="5" x="21.5" y="35.5">2</text><text fill="#000000" font-family="Serif" font-size="10" lengthAdjust="spacing" textLength="5" x="37.5" y="35.5">3</text><text fill="#000000" font-family="Serif" font-size="10" lengthAdjust="spacing" textLength="5" x="53.5" y="35.5">4</text><text fill="#000000" font-family="Serif" font-size="10" lengthAdjust="spacing" textLength="5" x="69.5" y="35.5">5</text><text fill="#000000" font-family="Serif" font-size="10" lengthAdjust="spacing" textLength="5" x="85.5" y="35.5">6</text><text fill="#000000" font-family="Serif" font-size="10" lengthAdjust="spacing" textLength="5" x="101.5" y="35.5">7</text><text fill="#000000" font-family="Serif" font-size="10" lengthAdjust="spacing" textLength="5" x="117.5" y="35.5">8</text><text fill="#000000" font-family="Serif" font-size="10" lengthAdjust="spacing" textLength="5" x="133.5" y="35.5">9</text><text fill="#000000" font-family="Serif" font-size="10" lengthAdjust="spacing" textLength="10" x="147" y="35.5">10</text><text fill="#000000" font-family="Serif" font-size="10" lengthAdjust="spacing" textLength="10" x="163" y="35.5">11</text><text fill="#000000" font-family="Serif" font-size="10" lengthAdjust="spacing" textLength="10" x="179" y="35.5">12</text><text fill="#000000" font-family="Serif" font-size="10" lengthAdjust="spacing" textLength="10" x="195" y="35.5">13</text><text fill="#000000" font-family="Serif" font-size="10" lengthAdjust="spacing" textLength="10" x="211" y="35.5">14</text><text fill="#000000" font-family="Serif" font-size="10" lengthAdjust="spacing" textLength="10" x="227" y="35.5">15</text><text fill="#000000" font-family="Serif" font-size="10" lengthAdjust="spacing" textLength="10" x="243" y="35.5">16</text><text fill="#000000" font-family="Serif" font-size="10" lengthAdjust="spacing" textLength="10" x="259" y="35.5">17</text><text fill="#000000" font-family="Serif" font-size="10" lengthAdjust="spacing" textLength="10" x="275" y="35.5">18</text><text fill="#000000" font-family="Serif" font-size="10" lengthAdjust="spacing" textLength="10" x="291" y="35.5">19</text><text fill="#000000" font-family="Serif" font-size="10" lengthAdjust="spacing" textLength="10" x="307" y="35.5">20</text><text fill="#000000" font-family="Serif" font-size="10" lengthAdjust="spacing" textLength="10" x="323" y="35.5">21</text><text fill="#000000" font-family="Serif" font-size="10" lengthAdjust="spacing" textLength="10" x="339" y="35.5">22</text><text fill="#000000" font-family="Serif" font-size="10" lengthAdjust="spacing" textLength="10" x="355" y="35.5">23</text><text fill="#000000" font-family="Serif" font-size="12" font-weight="bold" lengthAdjust="spacing" textLength="82" x="143" y="9">September 2020</text><line style="stroke:#C0C0C0;stroke-width:1.0;" x1="0" x2="0" y1="41" y2="255.0391"/><line style="stroke:#C0C0C0;stroke-width:1.0;" x1="16" x2="16" y1="41" y2="255.0391"/><line style="stroke:#C0C0C0;stroke-width:1.0;" x1="32" x2="32" y1="41" y2="255.0391"/><line style="stroke:#C0C0C0;stroke-width:1.0;" x1="48" x2="48" y1="41" y2="255.0391"/><line style="stroke:#C0C0C0;stroke-width:1.0;" x1="64" x2="64" y1="41" y2="255.0391"/><line style="stroke:#C0C0C0;stroke-width:1.0;" x1="80" x2="80" y1="41" y2="255.0391"/><line style="stroke:#C0C0C0;stroke-width:1.0;" x1="96" x2="96" y1="41" y2="255.0391"/><line style="stroke:#C0C0C0;stroke-width:1.0;" x1="112" x2="112" y1="41" y2="255.0391"/><line style="stroke:#C0C0C0;stroke-width:1.0;" x1="128" x2="128" y1="41" y2="255.0391"/><line style="stroke:#C0C0C0;stroke-width:1.0;" x1="144" x2="144" y1="41" y2="255.0391"/><line style="stroke:#C0C0C0;stroke-width:1.0;" x1="160" x2="160" y1="41" y2="255.0391"/><line style="stroke:#C0C0C0;stroke-width:1.0;" x1="176" x2="176" y1="41" y2="255.0391"/><line style="stroke:#C0C0C0;stroke-width:1.0;" x1="192" x2="192" y1="41" y2="255.0391"/><line style="stroke:#C0C0C0;stroke-width:1.0;" x1="208" x2="208" y1="41" y2="255.0391"/><line style="stroke:#C0C0C0;stroke-width:1.0;" x1="224" x2="224" y1="41" y2="255.0391"/><line style="stroke:#C0C0C0;stroke-width:1.0;" x1="240" x2="240" y1="41" y2="255.0391"/><line style="stroke:#C0C0C0;stroke-width:1.0;" x1="256" x2="256" y1="41" y2="255.0391"/><line style="stroke:#C0C0C0;stroke-width:1.0;" x1="272" x2="272" y1="41" y2="255.0391"/><line style="stroke:#C0C0C0;stroke-width:1.0;" x1="288" x2="288" y1="41" y2="255.0391"/><line style="stroke:#C0C0C0;stroke-width:1.0;" x1="304" x2="304" y1="41" y2="255.0391"/><line style="stroke:#C0C0C0;stroke-width:1.0;" x1="320" x2="320" y1="41" y2="255.0391"/><line style="stroke:#C0C0C0;stroke-width:1.0;" x1="336" x2="336" y1="41" y2="255.0391"/><line style="stroke:#C0C0C0;stroke-width:1.0;" x1="352" x2="352" y1="41" y2="255.0391"/><line style="stroke:#C0C0C0;stroke-width:1.0;" x1="368" x2="368" y1="41" y2="255.0391"/><line style="stroke:#C0C0C0;stroke-width:1.0;" x1="0" x2="368" y1="41" y2="41"/><line style="stroke:#C0C0C0;stroke-width:1.0;" x1="0" x2="368" y1="255.0391" y2="255.0391"/><line style="stroke:#181818;stroke-width:1.5;" x1="119" x2="119" y1="72.9102" y2="83.3877"/><line style="stroke:#181818;stroke-width:1.5;" x1="119" x2="127" y1="83.3877" y2="83.3877"/><polygon fill="#181818" points="123,79.3877,123,83.3877,123,87.3877,127,83.3877" style="stroke:#181818;stroke-width:1.5;"/><line style="stroke:#181818;stroke-width:1.5;" x1="247" x2="247" y1="89.8652" y2="100.3428"/><line style="stroke:#181818;stroke-width:1.5;" x1="247" x2="255" y1="100.3428" y2="100.3428"/><polygon fill="#181818" points="251,96.3428,251,100.3428,251,104.3428,255,100.3428" style="stroke:#181818;stroke-width:1.5;"/><line style="stroke:#181818;stroke-width:1.5;" x1="135" x2="135" y1="204.8848" y2="215.3623"/><line style="stroke:#181818;stroke-width:1.5;" x1="135" x2="143" y1="215.3623" y2="215.3623"/><polygon fill="#181818" points="139,211.3623,139,215.3623,139,219.3623,143,215.3623" style="stroke:#181818;stroke-width:1.5;"/><rect fill="#E2E2F0" height="12.9551" style="stroke:none;stroke-width:1.0;" width="44" x="2" y="43"/><line style="stroke:#181818;stroke-width:1.0;" x1="2" x2="46" y1="43" y2="43"/><line style="stroke:#181818;stroke-width:1.0;" x1="2" x2="46" y1="55.9551" y2="55.9551"/><line style="stroke:#181818;stroke-width:1.0;" x1="2" x2="2" y1="43" y2="55.9551"/><line style="stroke:#181818;stroke-width:1.0;" x1="46" x2="46" y1="43" y2="55.9551"/><rect fill="#E2E2F0" height="12.9551" style="stroke:none;stroke-width:1.0;" width="44" x="146" y="43"/><line style="stroke:#181818;stroke-width:1.0;" x1="146" x2="190" y1="43" y2="43"/><line style="stroke:#181818;stroke-width:1.0;" x1="146" x2="190" y1="55.9551" y2="55.9551"/><line style="stroke:#181818;stroke-width:1.0;" x1="146" x2="146" y1="43" y2="55.9551"/><line style="stroke:#181818;stroke-width:1.0;" x1="190" x2="190" y1="43" y2="55.9551"/><rect fill="#E2E2F0" height="12.9551" style="stroke:none;stroke-width:1.0;" width="60" x="66" y="59.9551"/><line style="stroke:#181818;stroke-width:1.0;" x1="66" x2="126" y1="59.9551" y2="59.9551"/><line style="stroke:#181818;stroke-width:1.0;" x1="66" x2="126" y1="72.9102" y2="72.9102"/><line style="stroke:#181818;stroke-width:1.0;" x1="66" x2="66" y1="59.9551" y2="72.9102"/><line style="stroke:#181818;stroke-width:1.0;" x1="126" x2="126" y1="59.9551" y2="72.9102"/><path d="M128,91.8652 L128,123.0645 L218,123.0645 L218,101.8652 L208,91.8652 L128,91.8652 " fill="#FEFFDD" style="stroke:#181818;stroke-width:0.5;"/><path d="M208,91.8652 L208,101.8652 L218,101.8652 L208,91.8652 " fill="#FEFFDD" style="stroke:#181818;stroke-width:0.5;"/><text fill="#000000" font-family="sans-serif" font-size="9" lengthAdjust="spacing" textLength="69" x="134" y="105.5664">note for task02</text><text fill="#000000" font-family="sans-serif" font-size="9" lengthAdjust="spacing" textLength="51" x="134" y="116.166">more notes</text><rect fill="#E2E2F0" height="12.9551" style="stroke:none;stroke-width:1.0;" width="124" x="130" y="76.9102"/><line style="stroke:#181818;stroke-width:1.0;" x1="130" x2="254" y1="76.9102" y2="76.9102"/><line style="stroke:#181818;stroke-width:1.0;" x1="130" x2="254" y1="89.8652" y2="89.8652"/><line style="stroke:#181818;stroke-width:1.0;" x1="130" x2="130" y1="76.9102" y2="89.8652"/><line style="stroke:#181818;stroke-width:1.0;" x1="254" x2="254" y1="76.9102" y2="89.8652"/><path d="M256,108.8203 L256,140.0195 L346,140.0195 L346,118.8203 L336,108.8203 L256,108.8203 " fill="#FEFFDD" style="stroke:#181818;stroke-width:0.5;"/><path d="M336,108.8203 L336,118.8203 L346,118.8203 L336,108.8203 " fill="#FEFFDD" style="stroke:#181818;stroke-width:0.5;"/><text fill="#000000" font-family="sans-serif" font-size="9" lengthAdjust="spacing" textLength="69" x="262" y="122.5215">note for task03</text><text fill="#000000" font-family="sans-serif" font-size="9" lengthAdjust="spacing" textLength="51" x="262" y="133.1211">more notes</text><rect fill="#E2E2F0" height="12.9551" style="stroke:none;stroke-width:1.0;" width="108" x="258" y="93.8652"/><line style="stroke:#181818;stroke-width:1.0;" x1="258" x2="366" y1="93.8652" y2="93.8652"/><line style="stroke:#181818;stroke-width:1.0;" x1="258" x2="366" y1="106.8203" y2="106.8203"/><line style="stroke:#181818;stroke-width:1.0;" x1="258" x2="258" y1="93.8652" y2="106.8203"/><line style="stroke:#181818;stroke-width:1.0;" x1="366" x2="366" y1="93.8652" y2="106.8203"/><line style="stroke:#181818;stroke-width:1.0;" x1="0" x2="5" y1="156.4971" y2="156.4971"/><line style="stroke:#181818;stroke-width:1.0;" x1="67" x2="367" y1="156.4971" y2="156.4971"/><rect fill="#E2E2F0" height="12.9551" style="stroke:none;stroke-width:1.0;" width="76" x="18" y="174.9746"/><line style="stroke:#181818;stroke-width:1.0;" x1="18" x2="94" y1="174.9746" y2="174.9746"/><line style="stroke:#181818;stroke-width:1.0;" x1="18" x2="94" y1="187.9297" y2="187.9297"/><line style="stroke:#181818;stroke-width:1.0;" x1="18" x2="18" y1="174.9746" y2="187.9297"/><line style="stroke:#181818;stroke-width:1.0;" x1="94" x2="94" y1="174.9746" y2="187.9297"/><rect fill="#E2E2F0" height="12.9551" style="stroke:none;stroke-width:1.0;" width="76" x="130" y="174.9746"/><line style="stroke:#181818;stroke-width:1.0;" x1="130" x2="206" y1="174.9746" y2="174.9746"/><line style="stroke:#181818;stroke-width:1.0;" x1="130" x2="206" y1="187.9297" y2="187.9297"/><line style="stroke:#181818;stroke-width:1.0;" x1="130" x2="130" y1="174.9746" y2="187.9297"/><line style="stroke:#181818;stroke-width:1.0;" x1="206" x2="206" y1="174.9746" y2="187.9297"/><rect fill="#E2E2F0" height="12.9551" style="stroke:none;stroke-width:1.0;" width="76" x="66" y="191.9297"/><line style="stroke:#181818;stroke-width:1.0;" x1="66" x2="142" y1="191.9297" y2="191.9297"/><line style="stroke:#181818;stroke-width:1.0;" x1="66" x2="142" y1="204.8848" y2="204.8848"/><line style="stroke:#181818;stroke-width:1.0;" x1="66" x2="66" y1="191.9297" y2="204.8848"/><line style="stroke:#181818;stroke-width:1.0;" x1="142" x2="142" y1="191.9297" y2="204.8848"/><path d="M144,223.8398 L144,255.0391 L234,255.0391 L234,233.8398 L224,223.8398 L144,223.8398 " fill="#FEFFDD" style="stroke:#181818;stroke-width:0.5;"/><path d="M224,223.8398 L224,233.8398 L234,233.8398 L224,223.8398 " fill="#FEFFDD" style="stroke:#181818;stroke-width:0.5;"/><text fill="#000000" font-family="sans-serif" font-size="9" lengthAdjust="spacing" textLength="69" x="150" y="237.541">note for task11</text><text fill="#000000" font-family="sans-serif" font-size="9" lengthAdjust="spacing" textLength="51" x="150" y="248.1406">more notes</text><rect fill="#E2E2F0" height="12.9551" style="stroke:none;stroke-width:1.0;" width="76" x="146" y="208.8848"/><line style="stroke:#181818;stroke-width:1.0;" x1="146" x2="222" y1="208.8848" y2="208.8848"/><line style="stroke:#181818;stroke-width:1.0;" x1="146" x2="222" y1="221.8398" y2="221.8398"/><line style="stroke:#181818;stroke-width:1.0;" x1="146" x2="146" y1="208.8848" y2="221.8398"/><line style="stroke:#181818;stroke-width:1.0;" x1="222" x2="222" y1="208.8848" y2="221.8398"/><text fill="#000000" font-family="sans-serif" font-size="11" lengthAdjust="spacing" textLength="30" x="6" y="53.6348">taskA</text><text fill="#000000" font-family="sans-serif" font-size="11" lengthAdjust="spacing" textLength="28" x="150" y="53.6348">taskB</text><text fill="#000000" font-family="sans-serif" font-size="11" lengthAdjust="spacing" textLength="36" x="70" y="70.5898">task01</text><text fill="#000000" font-family="sans-serif" font-size="11" lengthAdjust="spacing" textLength="36" x="134" y="87.5449">task02</text><text fill="#000000" font-family="sans-serif" font-size="11" lengthAdjust="spacing" textLength="36" x="262" y="104.5">task03</text><text fill="#000000" font-family="sans-serif" font-size="11" lengthAdjust="spacing" textLength="52" x="10" y="160.6543">separator</text><text fill="#000000" font-family="sans-serif" font-size="11" lengthAdjust="spacing" textLength="30" x="22" y="185.6094">taskC</text><text fill="#000000" font-family="sans-serif" font-size="11" lengthAdjust="spacing" textLength="30" x="134" y="185.6094">taskD</text><text fill="#000000" font-family="sans-serif" font-size="11" lengthAdjust="spacing" textLength="39" x="70" y="202.5645">task 10</text><text fill="#000000" font-family="sans-serif" font-size="11" lengthAdjust="spacing" textLength="39" x="150" y="219.5195">task 11</text><text fill="#000000" font-family="Serif" font-size="10" lengthAdjust="spacing" textLength="5" x="5.5" y="274.5391">1</text><text fill="#000000" font-family="Serif" font-size="10" lengthAdjust="spacing" textLength="5" x="21.5" y="274.5391">2</text><text fill="#000000" font-family="Serif" font-size="10" lengthAdjust="spacing" textLength="5" x="37.5" y="274.5391">3</text><text fill="#000000" font-family="Serif" font-size="10" lengthAdjust="spacing" textLength="5" x="53.5" y="274.5391">4</text><text fill="#000000" font-family="Serif" font-size="10" lengthAdjust="spacing" textLength="5" x="69.5" y="274.5391">5</text><text fill="#000000" font-family="Serif" font-size="10" lengthAdjust="spacing" textLength="5" x="85.5" y="274.5391">6</text><text fill="#000000" font-family="Serif" font-size="10" lengthAdjust="spacing" textLength="5" x="101.5" y="274.5391">7</text><text fill="#000000" font-family="Serif" font-size="10" lengthAdjust="spacing" textLength="5" x="117.5" y="274.5391">8</text><text fill="#000000" font-family="Serif" font-size="10" lengthAdjust="spacing" textLength="5" x="133.5" y="274.5391">9</text><text fill="#000000" font-family="Serif" font-size="10" lengthAdjust="spacing" textLength="10" x="147" y="274.5391">10</text><text fill="#000000" font-family="Serif" font-size="10" lengthAdjust="spacing" textLength="10" x="163" y="274.5391">11</text><text fill="#000000" font-family="Serif" font-size="10" lengthAdjust="spacing" textLength="10" x="179" y="274.5391">12</text><text fill="#000000" font-family="Serif" font-size="10" lengthAdjust="spacing" textLength="10" x="195" y="274.5391">13</text><text fill="#000000" font-family="Serif" font-size="10" lengthAdjust="spacing" textLength="10" x="211" y="274.5391">14</text><text fill="#000000" font-family="Serif" font-size="10" lengthAdjust="spacing" textLength="10" x="227" y="274.5391">15</text><text fill="#000000" font-family="Serif" font-size="10" lengthAdjust="spacing" textLength="10" x="243" y="274.5391">16</text><text fill="#000000" font-family="Serif" font-size="10" lengthAdjust="spacing" textLength="10" x="259" y="274.5391">17</text><text fill="#000000" font-family="Serif" font-size="10" lengthAdjust="spacing" textLength="10" x="275" y="274.5391">18</text><text fill="#000000" font-family="Serif" font-size="10" lengthAdjust="spacing" textLength="10" x="291" y="274.5391">19</text><text fill="#000000" font-family="Serif" font-size="10" lengthAdjust="spacing" textLength="10" x="307" y="274.5391">20</text><text fill="#000000" font-family="Serif" font-size="10" lengthAdjust="spacing" textLength="10" x="323" y="274.5391">21</text><text fill="#000000" font-family="Serif" font-size="10" lengthAdjust="spacing" textLength="10" x="339" y="274.5391">22</text><text fill="#000000" font-family="Serif" font-size="10" lengthAdjust="spacing" textLength="10" x="355" y="274.5391">23</text><text fill="#000000" font-family="Serif" font-size="10" lengthAdjust="spacing" textLength="11" x="2.5" y="262.5391">Tu</text><text fill="#000000" font-family="Serif" font-size="10" lengthAdjust="spacing" textLength="13" x="17.5" y="262.5391">We</text><text fill="#000000" font-family="Serif" font-size="10" lengthAdjust="spacing" textLength="11" x="34.5" y="262.5391">Th</text><text fill="#000000" font-family="Serif" font-size="10" lengthAdjust="spacing" textLength="9" x="51.5" y="262.5391">Fr</text><text fill="#000000" font-family="Serif" font-size="10" lengthAdjust="spacing" textLength="10" x="67" y="262.5391">Sa</text><text fill="#000000" font-family="Serif" font-size="10" lengthAdjust="spacing" textLength="11" x="82.5" y="262.5391">Su</text><text fill="#000000" font-family="Serif" font-size="10" lengthAdjust="spacing" textLength="14" x="97" y="262.5391">Mo</text><text fill="#000000" font-family="Serif" font-size="10" lengthAdjust="spacing" textLength="11" x="114.5" y="262.5391">Tu</text><text fill="#000000" font-family="Serif" font-size="10" lengthAdjust="spacing" textLength="13" x="129.5" y="262.5391">We</text><text fill="#000000" font-family="Serif" font-size="10" lengthAdjust="spacing" textLength="11" x="146.5" y="262.5391">Th</text><text fill="#000000" font-family="Serif" font-size="10" lengthAdjust="spacing" textLength="9" x="163.5" y="262.5391">Fr</text><text fill="#000000" font-family="Serif" font-size="10" lengthAdjust="spacing" textLength="10" x="179" y="262.5391">Sa</text><text fill="#000000" font-family="Serif" font-size="10" lengthAdjust="spacing" textLength="11" x="194.5" y="262.5391">Su</text><text fill="#000000" font-family="Serif" font-size="10" lengthAdjust="spacing" textLength="14" x="209" y="262.5391">Mo</text><text fill="#000000" font-family="Serif" font-size="10" lengthAdjust="spacing" textLength="11" x="226.5" y="262.5391">Tu</text><text fill="#000000" font-family="Serif" font-size="10" lengthAdjust="spacing" textLength="13" x="241.5" y="262.5391">We</text><text fill="#000000" font-family="Serif" font-size="10" lengthAdjust="spacing" textLength="11" x="258.5" y="262.5391">Th</text><text fill="#000000" font-family="Serif" font-size="10" lengthAdjust="spacing" textLength="9" x="275.5" y="262.5391">Fr</text><text fill="#000000" font-family="Serif" font-size="10" lengthAdjust="spacing" textLength="10" x="291" y="262.5391">Sa</text><text fill="#000000" font-family="Serif" font-size="10" lengthAdjust="spacing" textLength="11" x="306.5" y="262.5391">Su</text><text fill="#000000" font-family="Serif" font-size="10" lengthAdjust="spacing" textLength="14" x="321" y="262.5391">Mo</text><text fill="#000000" font-family="Serif" font-size="10" lengthAdjust="spacing" textLength="11" x="338.5" y="262.5391">Tu</text><text fill="#000000" font-family="Serif" font-size="10" lengthAdjust="spacing" textLength="13" x="353.5" y="262.5391">We</text><text fill="#000000" font-family="Serif" font-size="12" font-weight="bold" lengthAdjust="spacing" textLength="82" x="143" y="288.0391">September 2020</text></g></svg>