<?xml version="1.0" encoding="UTF-8" standalone="no"?><svg xmlns="http://www.w3.org/2000/svg" xmlns:xlink="http://www.w3.org/1999/xlink" contentStyleType="text/css" height="1099px" preserveAspectRatio="none" style="width:525px;height:1099px;background:#FFFFFF;" version="1.1" viewBox="0 0 525 1099" width="525px" zoomAndPan="magnify"><defs/><g><rect height="26.4883" style="stroke:#00000000;stroke-width:1.0;fill:none;" width="495" x="8" y="5"/><text fill="#000000" font-family="sans-serif" font-size="14" font-weight="bold" lengthAdjust="spacing" textLength="485" x="13" y="23.5352">Component diagram for Internet Banking System - API Application</text><!--MD5=[7442f3b126ee602ae02566c1a49e158a]
cluster api--><g id="cluster_api"><rect height="402" rx="2.5" ry="2.5" style="stroke:#444444;stroke-width:1.0;fill:none;stroke-dasharray:7.0,7.0;" width="506" x="7" y="272.4883"/><text fill="#444444" font-family="sans-serif" font-size="16" font-weight="bold" lengthAdjust="spacing" textLength="126" x="197" y="289.957">API Application</text><text fill="#444444" font-family="sans-serif" font-size="12" font-weight="bold" lengthAdjust="spacing" textLength="69" x="225.5" y="304.9336">[Container]</text></g><!--MD5=[30860e21ba0e39165c540f9e23fe2d63]
entity sign--><g id="elem_sign"><rect fill="#85BBF0" height="102.4414" rx="2.5" ry="2.5" style="stroke:#78A8D8;stroke-width:0.5;" width="218" x="24" y="341.4883"/><text fill="#000000" font-family="sans-serif" font-size="16" font-weight="bold" lengthAdjust="spacing" textLength="143" x="61.5" y="366.957">Sign In Controller</text><text fill="#000000" font-family="sans-serif" font-size="12" font-style="italic" lengthAdjust="spacing" textLength="118" x="74" y="381.9336">[MVC Rest Controlle]</text><text fill="#000000" font-family="sans-serif" font-size="14" lengthAdjust="spacing" textLength="4" x="131" y="398"> </text><text fill="#000000" font-family="sans-serif" font-size="14" lengthAdjust="spacing" textLength="198" x="34" y="414.4883">Allows users to sign in to the</text><text fill="#000000" font-family="sans-serif" font-size="14" lengthAdjust="spacing" textLength="165" x="50.5" y="430.9766">internet banking system</text></g><!--MD5=[4d2c1095686cc4272d4556037dedae14]
entity accounts--><g id="elem_accounts"><rect fill="#85BBF0" height="137.7734" rx="2.5" ry="2.5" style="stroke:#78A8D8;stroke-width:0.5;" width="202" x="286" y="323.4883"/><text fill="#000000" font-family="sans-serif" font-size="16" font-weight="bold" lengthAdjust="spacing" textLength="159" x="305" y="348.957">Accounts Summary</text><text fill="#000000" font-family="sans-serif" font-size="16" font-weight="bold" lengthAdjust="spacing" textLength="81" x="346.5" y="367.8008">Controller</text><text fill="#000000" font-family="sans-serif" font-size="12" font-style="italic" lengthAdjust="spacing" textLength="123" x="325.5" y="382.7773">[MVC Rest Controller]</text><text fill="#000000" font-family="sans-serif" font-size="14" lengthAdjust="spacing" textLength="4" x="385" y="398.8438"> </text><text fill="#000000" font-family="sans-serif" font-size="14" lengthAdjust="spacing" textLength="178" x="296" y="415.332">Provides customers with a</text><text fill="#000000" font-family="sans-serif" font-size="14" lengthAdjust="spacing" textLength="155" x="307.5" y="431.8203">summary of their bank</text><text fill="#000000" font-family="sans-serif" font-size="14" lengthAdjust="spacing" textLength="61" x="356.5" y="448.3086">accounts</text></g><!--MD5=[6f1da96282e479ff2a49312c7753703d]
entity security--><g id="elem_security"><rect fill="#85BBF0" height="118.9297" rx="2.5" ry="2.5" style="stroke:#78A8D8;stroke-width:0.5;" width="219" x="23.5" y="538.4883"/><text fill="#000000" font-family="sans-serif" font-size="16" font-weight="bold" lengthAdjust="spacing" textLength="165" x="50.5" y="563.957">Security Component</text><text fill="#000000" font-family="sans-serif" font-size="12" font-style="italic" lengthAdjust="spacing" textLength="76" x="95" y="578.9336">[Spring Bean]</text><text fill="#000000" font-family="sans-serif" font-size="14" lengthAdjust="spacing" textLength="4" x="131" y="595"> </text><text fill="#000000" font-family="sans-serif" font-size="14" lengthAdjust="spacing" textLength="199" x="33.5" y="611.4883">Provides functionality related</text><text fill="#000000" font-family="sans-serif" font-size="14" lengthAdjust="spacing" textLength="158" x="52" y="627.9766">to singing in, changing</text><text fill="#000000" font-family="sans-serif" font-size="14" lengthAdjust="spacing" textLength="105" x="80.5" y="644.4648">passwords, etc.</text></g><!--MD5=[8f94240328f985b36a3be06efd5d45ef]
entity mbsfacade--><g id="elem_mbsfacade"><rect fill="#85BBF0" height="121.2852" rx="2.5" ry="2.5" style="stroke:#78A8D8;stroke-width:0.5;" width="219" x="277.5" y="537.4883"/><text fill="#000000" font-family="sans-serif" font-size="16" font-weight="bold" lengthAdjust="spacing" textLength="160" x="304.5" y="562.957">Mainframe Banking</text><text fill="#000000" font-family="sans-serif" font-size="16" font-weight="bold" lengthAdjust="spacing" textLength="119" x="327.5" y="581.8008">System Facade</text><text fill="#000000" font-family="sans-serif" font-size="12" font-style="italic" lengthAdjust="spacing" textLength="76" x="349" y="596.7773">[Spring Bean]</text><text fill="#000000" font-family="sans-serif" font-size="14" lengthAdjust="spacing" textLength="4" x="385" y="612.8438"> </text><text fill="#000000" font-family="sans-serif" font-size="14" lengthAdjust="spacing" textLength="199" x="287.5" y="629.332">A facade onto the mainframe</text><text fill="#000000" font-family="sans-serif" font-size="14" lengthAdjust="spacing" textLength="111" x="331.5" y="645.8203">banking system.</text></g><!--MD5=[33573e971ff506c0f246109ca3fd77bd]
entity spa--><g id="elem_spa"><rect fill="#438DD5" height="135.418" rx="2.5" ry="2.5" style="stroke:#3C7FC0;stroke-width:0.5;" width="213" x="29.5" y="52.9883"/><text fill="#FFFFFF" font-family="sans-serif" font-size="16" font-weight="bold" lengthAdjust="spacing" textLength="193" x="39.5" y="78.457">Single Page Application</text><text fill="#FFFFFF" font-family="sans-serif" font-size="12" font-style="italic" lengthAdjust="spacing" textLength="137" x="67.5" y="93.4336">[javascript and angular]</text><text fill="#FFFFFF" font-family="sans-serif" font-size="14" lengthAdjust="spacing" textLength="4" x="134" y="109.5"> </text><text fill="#FFFFFF" font-family="sans-serif" font-size="14" lengthAdjust="spacing" textLength="162" x="53" y="125.9883">Provides all the internet</text><text fill="#FFFFFF" font-family="sans-serif" font-size="14" lengthAdjust="spacing" textLength="163" x="52.5" y="142.4766">banking functionality to</text><text fill="#FFFFFF" font-family="sans-serif" font-size="14" lengthAdjust="spacing" textLength="162" x="53" y="158.9648">customers via their web</text><text fill="#FFFFFF" font-family="sans-serif" font-size="14" lengthAdjust="spacing" textLength="60" x="106" y="175.4531">browser.</text></g><!--MD5=[99c5416311fbf9d118be657efd773f39]
entity ma--><g id="elem_ma"><rect fill="#438DD5" height="151.9063" rx="2.5" ry="2.5" style="stroke:#3C7FC0;stroke-width:0.5;" width="212" x="307" y="44.4883"/><text fill="#FFFFFF" font-family="sans-serif" font-size="16" font-weight="bold" lengthAdjust="spacing" textLength="94" x="366" y="69.957">Mobile App</text><text fill="#FFFFFF" font-family="sans-serif" font-size="12" font-style="italic" lengthAdjust="spacing" textLength="56" x="385" y="84.9336">[Xamarin]</text><text fill="#FFFFFF" font-family="sans-serif" font-size="14" lengthAdjust="spacing" textLength="4" x="411" y="101"> </text><text fill="#FFFFFF" font-family="sans-serif" font-size="14" lengthAdjust="spacing" textLength="188" x="317" y="117.4883">Provides a limited subset ot</text><text fill="#FFFFFF" font-family="sans-serif" font-size="14" lengthAdjust="spacing" textLength="140" x="341" y="133.9766">the internet banking</text><text fill="#FFFFFF" font-family="sans-serif" font-size="14" lengthAdjust="spacing" textLength="178" x="322" y="150.4648">functionality to customers</text><text fill="#FFFFFF" font-family="sans-serif" font-size="14" lengthAdjust="spacing" textLength="157" x="332.5" y="166.9531">via their mobile mobile</text><text fill="#FFFFFF" font-family="sans-serif" font-size="14" lengthAdjust="spacing" textLength="47" x="389.5" y="183.4414">device.</text></g><!--MD5=[7468467f3b6b392f1d176d828c753b77]
entity db--><g id="elem_db"><path d="M30,760.4883 C30,750.4883 133,750.4883 133,750.4883 C133,750.4883 236,750.4883 236,760.4883 L236,884.9063 C236,894.9063 133,894.9063 133,894.9063 C133,894.9063 30,894.9063 30,884.9063 L30,760.4883 " fill="#438DD5" style="stroke:#3C7FC0;stroke-width:0.5;"/><path d="M30,760.4883 C30,770.4883 133,770.4883 133,770.4883 C133,770.4883 236,770.4883 236,760.4883 " fill="none" style="stroke:#3C7FC0;stroke-width:0.5;"/><text fill="#FFFFFF" font-family="sans-serif" font-size="16" font-weight="bold" lengthAdjust="spacing" textLength="75" x="95.5" y="789.957">Database</text><text fill="#FFFFFF" font-family="sans-serif" font-size="12" font-style="italic" lengthAdjust="spacing" textLength="171" x="47.5" y="804.9336">[Relational Database Schema]</text><text fill="#FFFFFF" font-family="sans-serif" font-size="14" lengthAdjust="spacing" textLength="4" x="131" y="821"> </text><text fill="#FFFFFF" font-family="sans-serif" font-size="14" lengthAdjust="spacing" textLength="161" x="50.5" y="837.4883">Stores user registration</text><text fill="#FFFFFF" font-family="sans-serif" font-size="14" lengthAdjust="spacing" textLength="139" x="61.5" y="853.9766">information, hashed</text><text fill="#FFFFFF" font-family="sans-serif" font-size="14" lengthAdjust="spacing" textLength="182" x="40" y="870.4648">authentication credentials,</text><text fill="#FFFFFF" font-family="sans-serif" font-size="14" lengthAdjust="spacing" textLength="109" x="78.5" y="886.9531">access logs, etc.</text></g><!--MD5=[caf83f36d3620b5db28366bd7d249751]
entity mbs--><g id="elem_mbs"><rect fill="#999999" height="140.1289" rx="2.5" ry="2.5" style="stroke:#8A8A8A;stroke-width:0.5;" width="209" x="282.5" y="752.4883"/><text fill="#FFFFFF" font-family="sans-serif" font-size="16" font-weight="bold" lengthAdjust="spacing" textLength="160" x="304.5" y="777.957">Mainframe Banking</text><text fill="#FFFFFF" font-family="sans-serif" font-size="16" font-weight="bold" lengthAdjust="spacing" textLength="58" x="358" y="796.8008">System</text><text fill="#FFFFFF" font-family="sans-serif" font-size="14" lengthAdjust="spacing" textLength="4" x="385" y="813.7109"> </text><text fill="#FFFFFF" font-family="sans-serif" font-size="14" lengthAdjust="spacing" textLength="141" x="316.5" y="830.1992">Stores all of the core</text><text fill="#FFFFFF" font-family="sans-serif" font-size="14" lengthAdjust="spacing" textLength="185" x="292.5" y="846.6875">banking information about</text><text fill="#FFFFFF" font-family="sans-serif" font-size="14" lengthAdjust="spacing" textLength="144" x="313" y="863.1758">customers, accounts,</text><text fill="#FFFFFF" font-family="sans-serif" font-size="14" lengthAdjust="spacing" textLength="116" x="329" y="879.6641">transactions, etc.</text></g><!--MD5=[95dadc5fd8c5c901d6969e2e98c70c21]
link sign to security--><g id="link_sign_security"><path d="M133,443.5283 C133,469.6683 133,501.9983 133,530.2383 " fill="none" id="sign-to-security" style="stroke:#666666;stroke-width:1.0;"/><polygon fill="#666666" points="133,538.4683,136,530.4683,130,530.4683,133,538.4683" style="stroke:#666666;stroke-width:1.0;"/><text fill="#666666" font-family="sans-serif" font-size="12" font-weight="bold" lengthAdjust="spacing" textLength="30" x="134" y="504.0898">Uses</text></g><!--MD5=[42d8fcfb42dec18b2b51d602409b2c47]
link accounts to mbsfacade--><g id="link_accounts_mbsfacade"><path d="M387,461.5383 C387,483.2583 387,507.2883 387,528.9983 " fill="none" id="accounts-to-mbsfacade" style="stroke:#666666;stroke-width:1.0;"/><polygon fill="#666666" points="387,537.1983,390,529.1983,384,529.1983,387,537.1983" style="stroke:#666666;stroke-width:1.0;"/><text fill="#666666" font-family="sans-serif" font-size="12" font-weight="bold" lengthAdjust="spacing" textLength="30" x="388" y="504.0898">Uses</text></g><!--MD5=[2f3b256d614db35f96be6b3c1201bf4f]
link security to db--><g id="link_security_db"><path d="M133,657.7383 C133,683.5183 133,714.1783 133,741.9583 " fill="none" id="security-to-db" style="stroke:#666666;stroke-width:1.0;"/><polygon fill="#666666" points="133,750.0983,136,742.0983,130,742.0983,133,750.0983" style="stroke:#666666;stroke-width:1.0;"/><text fill="#666666" font-family="sans-serif" font-size="12" font-weight="bold" lengthAdjust="spacing" textLength="95" x="134" y="703.0898">Read &amp; write to</text><text fill="#666666" font-family="sans-serif" font-size="12" font-style="italic" lengthAdjust="spacing" textLength="36" x="163.5" y="717.2227">[JDBC]</text></g><!--MD5=[db502886685a38a9fde1816e185dd0e0]
link mbsfacade to mbs--><g id="link_mbsfacade_mbs"><path d="M387,658.6183 C387,684.8583 387,716.0283 387,744.0383 " fill="none" id="mbsfacade-to-mbs" style="stroke:#666666;stroke-width:1.0;"/><polygon fill="#666666" points="387,752.2283,390,744.2283,384,744.2283,387,752.2283" style="stroke:#666666;stroke-width:1.0;"/><text fill="#666666" font-family="sans-serif" font-size="12" font-weight="bold" lengthAdjust="spacing" textLength="30" x="411" y="703.0898">Uses</text><text fill="#666666" font-family="sans-serif" font-size="12" font-style="italic" lengthAdjust="spacing" textLength="76" x="388" y="717.2227">[XML/HTTPS]</text></g><!--MD5=[c99bcb02a7404ff7207e229366f7705a]
link spa to sign--><g id="link_spa_sign"><path d="M89.71,188.0283 C83.23,200.3183 77.57,213.4183 74,226.4883 C64.09,262.7583 77.5,302.4683 94.02,333.8383 " fill="none" id="spa-to-sign" style="stroke:#666666;stroke-width:1.0;"/><polygon fill="#666666" points="98.05,341.2183,96.8577,332.7579,91.5887,335.628,98.05,341.2183" style="stroke:#666666;stroke-width:1.0;"/><text fill="#666666" font-family="sans-serif" font-size="12" font-weight="bold" lengthAdjust="spacing" textLength="30" x="100" y="239.0898">Uses</text><text fill="#666666" font-family="sans-serif" font-size="12" font-style="italic" lengthAdjust="spacing" textLength="80" x="75" y="253.2227">[JSON/HTTPS]</text></g><!--MD5=[cadaf8a8a3c36cf6631f6dffced8899b]
link spa to accounts--><g id="link_spa_accounts"><path d="M150.69,188.1083 C159.62,213.3483 173.77,239.9583 196,256.4883 C218.65,273.3283 233.63,252.1083 259,264.4883 C284.86,277.1083 308.66,297.0383 328.53,317.4083 " fill="none" id="spa-to-accounts" style="stroke:#666666;stroke-width:1.0;"/><polygon fill="#666666" points="334.3,323.4383,330.9421,315.5818,326.6042,319.7269,334.3,323.4383" style="stroke:#666666;stroke-width:1.0;"/><text fill="#666666" font-family="sans-serif" font-size="12" font-weight="bold" lengthAdjust="spacing" textLength="30" x="222" y="239.0898">Uses</text><text fill="#666666" font-family="sans-serif" font-size="12" font-style="italic" lengthAdjust="spacing" textLength="80" x="197" y="253.2227">[JSON/HTTPS]</text></g><!--MD5=[f21b9bec839c07106b83575f200b93d2]
link ma to sign--><g id="link_ma_sign"><path d="M341.78,196.6383 C314.97,224.5783 289.19,250.9083 282,256.4883 C276.34,260.8783 273.76,260.2283 268,264.4883 C239.5,285.5683 210.53,312.0283 186.77,335.3283 " fill="none" id="ma-to-sign" style="stroke:#666666;stroke-width:1.0;"/><polygon fill="#666666" points="180.85,341.1783,188.6459,337.6821,184.4248,333.4181,180.85,341.1783" style="stroke:#666666;stroke-width:1.0;"/><text fill="#666666" font-family="sans-serif" font-size="12" font-weight="bold" lengthAdjust="spacing" textLength="30" x="338" y="239.0898">Uses</text><text fill="#666666" font-family="sans-serif" font-size="12" font-style="italic" lengthAdjust="spacing" textLength="80" x="313" y="253.2227">[JSON/HTTPS]</text></g><!--MD5=[334addda0037abd6e432739e1785e7cb]
link ma to accounts--><g id="link_ma_accounts"><path d="M408.78,196.5283 C407.47,216.0683 405.87,237.0783 404,256.4883 C402.17,275.5183 399.8,296.0083 397.41,315.1383 " fill="none" id="ma-to-accounts" style="stroke:#666666;stroke-width:1.0;"/><polygon fill="#666666" points="396.38,323.2483,400.3575,315.6866,394.4047,314.9358,396.38,323.2483" style="stroke:#666666;stroke-width:1.0;"/><text fill="#666666" font-family="sans-serif" font-size="12" font-weight="bold" lengthAdjust="spacing" textLength="30" x="432" y="239.0898">Uses</text><text fill="#666666" font-family="sans-serif" font-size="12" font-style="italic" lengthAdjust="spacing" textLength="80" x="407" y="253.2227">[JSON/HTTPS]</text></g><rect height="164.3945" rx="7.5" ry="7.5" style="stroke:#00000000;stroke-width:1.0;fill:none;" width="159" x="344" y="918.9063"/><text fill="#000000" font-family="sans-serif" font-size="14" font-weight="bold" lengthAdjust="spacing" textLength="51" x="350" y="940.4414">Legend</text><text fill="#FFFFFF" font-family="sans-serif" font-size="14" lengthAdjust="spacing" textLength="4" x="401" y="940.4414"> </text><rect fill="#08427B" height="16.4883" style="stroke:none;stroke-width:1.0;" width="147" x="350" y="943.3945"/><text fill="#FFFFFF" font-family="sans-serif" font-size="14" lengthAdjust="spacing" textLength="48" x="354" y="956.9297">person</text><rect fill="#1168BD" height="16.4883" style="stroke:none;stroke-width:1.0;" width="147" x="350" y="959.8828"/><text fill="#FFFFFF" font-family="sans-serif" font-size="14" lengthAdjust="spacing" textLength="47" x="354" y="973.418">system</text><rect fill="#438DD5" height="16.4883" style="stroke:none;stroke-width:1.0;" width="147" x="350" y="976.3711"/><text fill="#FFFFFF" font-family="sans-serif" font-size="14" lengthAdjust="spacing" textLength="65" x="354" y="989.9063">container</text><rect fill="#85BBF0" height="16.4883" style="stroke:none;stroke-width:1.0;" width="147" x="350" y="992.8594"/><text fill="#FFFFFF" font-family="sans-serif" font-size="14" lengthAdjust="spacing" textLength="78" x="354" y="1006.3945">component</text><rect fill="#686868" height="16.4883" style="stroke:none;stroke-width:1.0;" width="147" x="350" y="1009.3477"/><text fill="#FFFFFF" font-family="sans-serif" font-size="14" lengthAdjust="spacing" textLength="109" x="354" y="1022.8828">external person</text><rect fill="#999999" height="16.4883" style="stroke:none;stroke-width:1.0;" width="147" x="350" y="1025.8359"/><text fill="#FFFFFF" font-family="sans-serif" font-size="14" lengthAdjust="spacing" textLength="108" x="354" y="1039.3711">external system</text><rect fill="#B3B3B3" height="16.4883" style="stroke:none;stroke-width:1.0;" width="147" x="350" y="1042.3242"/><text fill="#FFFFFF" font-family="sans-serif" font-size="14" lengthAdjust="spacing" textLength="126" x="354" y="1055.8594">external container</text><rect fill="#CCCCCC" height="16.4883" style="stroke:none;stroke-width:1.0;" width="147" x="350" y="1058.8125"/><text fill="#FFFFFF" font-family="sans-serif" font-size="14" lengthAdjust="spacing" textLength="139" x="354" y="1072.3477">external component</text><line style="stroke:#FFFFFF;stroke-width:1.0;" x1="350" x2="497" y1="926.9063" y2="926.9063"/><line style="stroke:#FFFFFF;stroke-width:1.0;" x1="350" x2="497" y1="943.3945" y2="943.3945"/><line style="stroke:#FFFFFF;stroke-width:1.0;" x1="350" x2="497" y1="959.8828" y2="959.8828"/><line style="stroke:#FFFFFF;stroke-width:1.0;" x1="350" x2="497" y1="976.3711" y2="976.3711"/><line style="stroke:#FFFFFF;stroke-width:1.0;" x1="350" x2="497" y1="992.8594" y2="992.8594"/><line style="stroke:#FFFFFF;stroke-width:1.0;" x1="350" x2="497" y1="1009.3477" y2="1009.3477"/><line style="stroke:#FFFFFF;stroke-width:1.0;" x1="350" x2="497" y1="1025.8359" y2="1025.8359"/><line style="stroke:#FFFFFF;stroke-width:1.0;" x1="350" x2="497" y1="1042.3242" y2="1042.3242"/><line style="stroke:#FFFFFF;stroke-width:1.0;" x1="350" x2="497" y1="1058.8125" y2="1058.8125"/><line style="stroke:#FFFFFF;stroke-width:1.0;" x1="350" x2="497" y1="1075.3008" y2="1075.3008"/><line style="stroke:#FFFFFF;stroke-width:1.0;" x1="350" x2="350" y1="926.9063" y2="1075.3008"/><line style="stroke:#FFFFFF;stroke-width:1.0;" x1="497" x2="497" y1="926.9063" y2="1075.3008"/></g></svg>