<?xml version="1.0" encoding="UTF-8" standalone="no"?><svg xmlns="http://www.w3.org/2000/svg" xmlns:xlink="http://www.w3.org/1999/xlink" contentStyleType="text/css" height="184px" preserveAspectRatio="none" style="width:398px;height:184px;background:#003153;" version="1.1" viewBox="0 0 398 184" width="398px" zoomAndPan="magnify"><defs/><g><!--MD5=[3f0ef310aaa84a542276992c5216544d]
class Car--><g id="elem_Car"><rect codeLine="2" fill="#003153" height="44" id="Car" rx="2.5" ry="2.5" style="stroke:#D9D3D0;stroke-width:1.0;" width="52" x="173.5" y="12"/><ellipse cx="186.5" cy="26" fill="#003153" rx="9" ry="9" style="stroke:#D9D3D0;stroke-width:1.0;"/><path d="M188.4531,21.9292 Q188.6191,21.6304 188.7935,21.5059 Q188.9678,21.3813 189.2334,21.3813 Q189.6401,21.3813 189.8103,21.5972 Q189.9805,21.813 189.9805,22.3359 L189.9971,24.4941 Q189.9971,25.0669 189.8103,25.2661 Q189.6235,25.4653 189.1338,25.4653 Q188.7852,25.4653 188.5984,25.2993 Q188.4116,25.1333 188.2788,24.6851 Q188.063,23.8965 187.5898,23.552 Q187.1167,23.2075 186.2783,23.2075 Q185,23.2075 184.3193,24.0708 Q183.6387,24.9341 183.6387,26.5693 Q183.6387,28.1963 184.3276,29.0679 Q185.0166,29.9395 186.2949,29.9395 Q187.1665,29.9395 188.2166,29.3584 Q189.2666,28.7773 189.5405,28.7773 Q189.8643,28.7773 190.0842,29.0513 Q190.3042,29.3252 190.3042,29.7319 Q190.3042,30.4624 189.0176,31.1099 Q187.731,31.7573 186.1206,31.7573 Q183.9458,31.7573 182.6011,30.3213 Q181.2563,28.8853 181.2563,26.5693 Q181.2563,24.3364 182.6177,22.8589 Q183.979,21.3813 186.0708,21.3813 Q186.6602,21.3813 187.2329,21.5142 Q187.8057,21.647 188.4531,21.9292 Z " fill="#D9D3D0"/><text fill="#D9D3D0" font-family="Verdana" font-size="14" lengthAdjust="spacing" textLength="24" x="198.5" y="31.5679">Car</text><line style="stroke:#D9D3D0;stroke-width:1.0;" x1="174.5" x2="224.5" y1="40" y2="40"/><line style="stroke:#D9D3D0;stroke-width:1.0;" x1="174.5" x2="224.5" y1="48" y2="48"/></g><!--MD5=[eee9d396a8aca12c6c152931e8dc1ab6]
class Driver--><g id="elem_Driver"><rect fill="#003153" height="44" id="Driver" rx="2.5" ry="2.5" style="stroke:#D9D3D0;stroke-width:1.0;" width="71" x="12" y="12"/><ellipse cx="25" cy="26" fill="#003153" rx="9" ry="9" style="stroke:#D9D3D0;stroke-width:1.0;"/><path d="M26.9531,21.9292 Q27.1191,21.6304 27.2935,21.5059 Q27.4678,21.3813 27.7334,21.3813 Q28.1401,21.3813 28.3103,21.5972 Q28.4805,21.813 28.4805,22.3359 L28.4971,24.4941 Q28.4971,25.0669 28.3103,25.2661 Q28.1235,25.4653 27.6338,25.4653 Q27.2852,25.4653 27.0984,25.2993 Q26.9116,25.1333 26.7788,24.6851 Q26.563,23.8965 26.0898,23.552 Q25.6167,23.2075 24.7783,23.2075 Q23.5,23.2075 22.8193,24.0708 Q22.1387,24.9341 22.1387,26.5693 Q22.1387,28.1963 22.8276,29.0679 Q23.5166,29.9395 24.7949,29.9395 Q25.6665,29.9395 26.7166,29.3584 Q27.7666,28.7773 28.0405,28.7773 Q28.3643,28.7773 28.5842,29.0513 Q28.8042,29.3252 28.8042,29.7319 Q28.8042,30.4624 27.5176,31.1099 Q26.231,31.7573 24.6206,31.7573 Q22.4458,31.7573 21.1011,30.3213 Q19.7563,28.8853 19.7563,26.5693 Q19.7563,24.3364 21.1177,22.8589 Q22.479,21.3813 24.5708,21.3813 Q25.1602,21.3813 25.7329,21.5142 Q26.3057,21.647 26.9531,21.9292 Z " fill="#D9D3D0"/><text fill="#D9D3D0" font-family="Verdana" font-size="14" lengthAdjust="spacing" textLength="43" x="37" y="31.5679">Driver</text><line style="stroke:#D9D3D0;stroke-width:1.0;" x1="13" x2="82" y1="40" y2="40"/><line style="stroke:#D9D3D0;stroke-width:1.0;" x1="13" x2="82" y1="48" y2="48"/></g><!--MD5=[63ed6a0a2dfd613875880437a5e2b06e]
class Wheel--><g id="elem_Wheel"><rect fill="#003153" height="44" id="Wheel" rx="2.5" ry="2.5" style="stroke:#D9D3D0;stroke-width:1.0;" width="71" x="320" y="12"/><ellipse cx="333" cy="26" fill="#003153" rx="9" ry="9" style="stroke:#D9D3D0;stroke-width:1.0;"/><path d="M334.9531,21.9292 Q335.1191,21.6304 335.2935,21.5059 Q335.4678,21.3813 335.7334,21.3813 Q336.1401,21.3813 336.3103,21.5972 Q336.4805,21.813 336.4805,22.3359 L336.4971,24.4941 Q336.4971,25.0669 336.3103,25.2661 Q336.1235,25.4653 335.6338,25.4653 Q335.2852,25.4653 335.0984,25.2993 Q334.9116,25.1333 334.7788,24.6851 Q334.563,23.8965 334.0898,23.552 Q333.6167,23.2075 332.7783,23.2075 Q331.5,23.2075 330.8193,24.0708 Q330.1387,24.9341 330.1387,26.5693 Q330.1387,28.1963 330.8276,29.0679 Q331.5166,29.9395 332.7949,29.9395 Q333.6665,29.9395 334.7166,29.3584 Q335.7666,28.7773 336.0405,28.7773 Q336.3643,28.7773 336.5842,29.0513 Q336.8042,29.3252 336.8042,29.7319 Q336.8042,30.4624 335.5176,31.1099 Q334.231,31.7573 332.6206,31.7573 Q330.4458,31.7573 329.1011,30.3213 Q327.7563,28.8853 327.7563,26.5693 Q327.7563,24.3364 329.1177,22.8589 Q330.479,21.3813 332.5708,21.3813 Q333.1602,21.3813 333.7329,21.5142 Q334.3057,21.647 334.9531,21.9292 Z " fill="#D9D3D0"/><text fill="#D9D3D0" font-family="Verdana" font-size="14" lengthAdjust="spacing" textLength="43" x="345" y="31.5679">Wheel</text><line style="stroke:#D9D3D0;stroke-width:1.0;" x1="321" x2="390" y1="40" y2="40"/><line style="stroke:#D9D3D0;stroke-width:1.0;" x1="321" x2="390" y1="48" y2="48"/></g><!--MD5=[09ce52be0ee7de43c61b6e2d59bf108b]
class Person--><g id="elem_Person"><rect fill="#003153" height="44" id="Person" rx="2.5" ry="2.5" style="stroke:#D9D3D0;stroke-width:1.0;" width="74" x="162.5" y="133"/><ellipse cx="175.5" cy="147" fill="#003153" rx="9" ry="9" style="stroke:#D9D3D0;stroke-width:1.0;"/><path d="M177.4531,142.9292 Q177.6191,142.6304 177.7935,142.5059 Q177.9678,142.3813 178.2334,142.3813 Q178.6401,142.3813 178.8103,142.5972 Q178.9805,142.813 178.9805,143.3359 L178.9971,145.4941 Q178.9971,146.0669 178.8103,146.2661 Q178.6235,146.4653 178.1338,146.4653 Q177.7852,146.4653 177.5984,146.2993 Q177.4116,146.1333 177.2788,145.6851 Q177.063,144.8965 176.5898,144.552 Q176.1167,144.2075 175.2783,144.2075 Q174,144.2075 173.3193,145.0708 Q172.6387,145.9341 172.6387,147.5693 Q172.6387,149.1963 173.3276,150.0679 Q174.0166,150.9395 175.2949,150.9395 Q176.1665,150.9395 177.2166,150.3584 Q178.2666,149.7773 178.5405,149.7773 Q178.8643,149.7773 179.0842,150.0513 Q179.3042,150.3252 179.3042,150.7319 Q179.3042,151.4624 178.0176,152.1099 Q176.731,152.7573 175.1206,152.7573 Q172.9458,152.7573 171.6011,151.3213 Q170.2563,149.8853 170.2563,147.5693 Q170.2563,145.3364 171.6177,143.8589 Q172.979,142.3813 175.0708,142.3813 Q175.6602,142.3813 176.2329,142.5142 Q176.8057,142.647 177.4531,142.9292 Z " fill="#D9D3D0"/><text fill="#D9D3D0" font-family="Verdana" font-size="14" lengthAdjust="spacing" textLength="46" x="187.5" y="152.5679">Person</text><line style="stroke:#D9D3D0;stroke-width:1.0;" x1="163.5" x2="235.5" y1="161" y2="161"/><line style="stroke:#D9D3D0;stroke-width:1.0;" x1="163.5" x2="235.5" y1="169" y2="169"/></g><!--MD5=[85884a73f707af3ae230d559cad4fc2c]
link Driver to Car--><g id="link_Driver_Car"><path codeLine="4" d="M83.14,34 C110.69,34 148.21,34 173.11,34 " fill="none" id="Driver-Car" style="stroke:#D9D3D0;stroke-width:1.0;"/><polygon fill="#D9D3D0" points="110.25,22.8997,101.2049,19.9607,101.2049,25.8386,110.25,22.8997" style="stroke:#D9D3D0;stroke-width:1.0;"/><text fill="#D9D3D0" font-family="Verdana" font-size="13" lengthAdjust="spacing" textLength="41" x="114.25" y="28.0698">drives</text></g><!--MD5=[6190aadcc963d15c02367c0199cc5452]
reverse link Car to Wheel--><g id="link_Car_Wheel"><path codeLine="5" d="M238.65,34 C263.61,34 295.71,34 319.94,34 " fill="none" id="Car-backto-Wheel" style="stroke:#D9D3D0;stroke-width:1.0;"/><polygon fill="#D9D3D0" points="225.61,34,231.61,38,237.61,34,231.61,30,225.61,34" style="stroke:#D9D3D0;stroke-width:1.0;"/><polygon fill="#D9D3D0" points="252.75,22.8997,243.7049,19.9607,243.7049,25.8386,252.75,22.8997" style="stroke:#D9D3D0;stroke-width:1.0;"/><text fill="#D9D3D0" font-family="Verdana" font-size="13" lengthAdjust="spacing" textLength="45" x="256.75" y="28.0698">have 4</text></g><!--MD5=[2800f28b8e2a8d078fc1fa2e2aa6715e]
link Car to Person--><g id="link_Car_Person"><path codeLine="6" d="M199.5,56 C199.5,77.62 199.5,111.12 199.5,132.81 " fill="none" id="Car-Person" style="stroke:#D9D3D0;stroke-width:1.0;"/><polygon fill="#D9D3D0" points="204.5,89.8997,201.5611,98.9447,207.4389,98.9447,204.5,89.8997" style="stroke:#D9D3D0;stroke-width:1.0;"/><text fill="#D9D3D0" font-family="Verdana" font-size="13" lengthAdjust="spacing" textLength="34" x="213.5" y="100.0698">owns</text></g></g></svg>