<?xml version="1.0" encoding="UTF-8" standalone="no"?><svg xmlns="http://www.w3.org/2000/svg" xmlns:xlink="http://www.w3.org/1999/xlink" contentStyleType="text/css" height="226px" preserveAspectRatio="none" style="width:259px;height:226px;background:#F9F9F9;" version="1.1" viewBox="0 0 259 226" width="259px" zoomAndPan="magnify"><defs/><g><rect fill="#ADD8E6" height="90.8867" rx="3.5" ry="3.5" style="stroke:#393939;stroke-width:1.0;" width="242.5" x="10" y="82.7988"/><path d="M10,129.4199 L252.5,129.4199 L252.5,170.1855 A3.5,3.5 0 0 1 249,173.6855 L13.5,173.6855 A3.5,3.5 0 0 1 10,170.1855 L10,129.4199 " fill="#FFC0CB" style="stroke:none;stroke-width:1.0;"/><line style="stroke:#393939;stroke-width:0.5;stroke-dasharray:5.0,5.0;" x1="43" x2="43" y1="36.4883" y2="190.6855"/><line style="stroke:#393939;stroke-width:0.5;stroke-dasharray:5.0,5.0;" x1="222.5" x2="222.5" y1="36.4883" y2="190.6855"/><rect fill="#E55756" height="30.4883" rx="3.5" ry="3.5" style="stroke:#191919;stroke-width:1.5;" width="47" x="20" y="5"/><text fill="#F9F9F9" font-family="sans-serif" font-size="14" lengthAdjust="spacing" textLength="33" x="27" y="25.5352">Alice</text><rect fill="#E55756" height="30.4883" rx="3.5" ry="3.5" style="stroke:#191919;stroke-width:1.5;" width="47" x="20" y="189.6855"/><text fill="#F9F9F9" font-family="sans-serif" font-size="14" lengthAdjust="spacing" textLength="33" x="27" y="210.2207">Alice</text><rect fill="#E55756" height="30.4883" rx="3.5" ry="3.5" style="stroke:#191919;stroke-width:1.5;" width="40" x="202.5" y="5"/><text fill="#F9F9F9" font-family="sans-serif" font-size="14" lengthAdjust="spacing" textLength="26" x="209.5" y="25.5352">Bob</text><rect fill="#E55756" height="30.4883" rx="3.5" ry="3.5" style="stroke:#191919;stroke-width:1.5;" width="40" x="202.5" y="189.6855"/><text fill="#F9F9F9" font-family="sans-serif" font-size="14" lengthAdjust="spacing" textLength="26" x="209.5" y="210.2207">Bob</text><polygon fill="#191919" points="210.5,63.7988,220.5,67.7988,210.5,71.7988,214.5,67.7988" style="stroke:#191919;stroke-width:1.0;"/><line style="stroke:#191919;stroke-width:1.0;" x1="43.5" x2="216.5" y1="67.7988" y2="67.7988"/><text fill="#000000" font-family="sans-serif" font-size="13" lengthAdjust="spacing" textLength="147" x="50.5" y="63.0566">Authentication Request</text><path d="M13.5,82.7988 L72,82.7988 L72,90.1094 L62,100.1094 L10,100.1094 L10,86.2988 A3.5,3.5 0 0 1 13.5,82.7988 " fill="#FFD700" style="stroke:#393939;stroke-width:1.5;"/><rect fill="none" height="90.8867" rx="3.5" ry="3.5" style="stroke:#393939;stroke-width:1.0;" width="242.5" x="10" y="82.7988"/><text fill="#191919" font-family="sans-serif" font-size="13" font-weight="bold" lengthAdjust="spacing" textLength="17" x="25" y="96.3672">alt</text><text fill="#393939" font-family="sans-serif" font-size="11" font-weight="bold" lengthAdjust="spacing" textLength="95" x="87" y="95.4336">[Successful case]</text><polygon fill="#191919" points="54.5,117.4199,44.5,121.4199,54.5,125.4199,50.5,121.4199" style="stroke:#191919;stroke-width:1.0;"/><line style="stroke:#191919;stroke-width:1.0;" x1="48.5" x2="221.5" y1="121.4199" y2="121.4199"/><text fill="#000000" font-family="sans-serif" font-size="13" lengthAdjust="spacing" textLength="155" x="60.5" y="116.6777">Authentication Accepted</text><line style="stroke:#393939;stroke-width:1.0;stroke-dasharray:2.0,2.0;" x1="10" x2="252.5" y1="130.4199" y2="130.4199"/><text fill="#393939" font-family="sans-serif" font-size="11" font-weight="bold" lengthAdjust="spacing" textLength="46" x="15" y="141.0547">[Failure]</text><polygon fill="#191919" points="54.5,161.6855,44.5,165.6855,54.5,169.6855,50.5,165.6855" style="stroke:#191919;stroke-width:1.0;"/><line style="stroke:#191919;stroke-width:1.0;" x1="48.5" x2="221.5" y1="165.6855" y2="165.6855"/><text fill="#000000" font-family="sans-serif" font-size="13" lengthAdjust="spacing" textLength="150" x="60.5" y="160.9434">Authentication Rejected</text></g></svg>