<?xml version="1.0" encoding="UTF-8" standalone="no"?><svg xmlns="http://www.w3.org/2000/svg" xmlns:xlink="http://www.w3.org/1999/xlink" contentStyleType="text/css" height="227px" preserveAspectRatio="none" style="width:1044px;height:227px;background:#FFFFFF;" version="1.1" viewBox="0 0 1044 227" width="1044px" zoomAndPan="magnify"><defs/><g><line style="stroke:#181818;stroke-width:1.5;" x1="73.5" x2="73.5" y1="64.1328" y2="84.1328"/><rect fill="#F1F1F1" height="34.1328" style="stroke:#181818;stroke-width:1.5;" width="127" x="10" y="84.1328"/><text fill="#000000" font-family="sans-serif" font-size="12" lengthAdjust="spacing" textLength="107" x="20" y="105.7344">Launch the project</text><line style="stroke:#181818;stroke-width:1.5;" x1="73.5" x2="83.5" y1="150.332" y2="150.332"/><rect fill="#F1F1F1" height="34.1328" style="stroke:#181818;stroke-width:1.5;" width="204" x="83.5" y="133.2656"/><text fill="#000000" font-family="sans-serif" font-size="12" lengthAdjust="spacing" textLength="184" x="93.5" y="154.8672">Complete Stakeholder Research</text><line style="stroke:#181818;stroke-width:1.5;" x1="73.5" x2="83.5" y1="199.4648" y2="199.4648"/><rect fill="#F1F1F1" height="34.1328" style="stroke:#181818;stroke-width:1.5;" width="171" x="83.5" y="182.3984"/><text fill="#000000" font-family="sans-serif" font-size="12" lengthAdjust="spacing" textLength="151" x="93.5" y="204">Initial Implementation Plan</text><line style="stroke:#181818;stroke-width:1.5;" x1="73.5" x2="73.5" y1="118.2656" y2="199.4648"/><line style="stroke:#181818;stroke-width:1.5;" x1="537.5" x2="537.5" y1="64.1328" y2="84.1328"/><rect fill="#F1F1F1" height="34.1328" style="stroke:#181818;stroke-width:1.5;" width="98" x="488.5" y="84.1328"/><text fill="#000000" font-family="sans-serif" font-size="12" lengthAdjust="spacing" textLength="78" x="498.5" y="105.7344">Design phase</text><line style="stroke:#181818;stroke-width:1.5;" x1="527.5" x2="537.5" y1="150.332" y2="150.332"/><rect fill="#F1F1F1" height="34.1328" style="stroke:#181818;stroke-width:1.5;" width="220" x="307.5" y="133.2656"/><text fill="#000000" font-family="sans-serif" font-size="12" lengthAdjust="spacing" textLength="200" x="317.5" y="154.8672">Measure AsIs performance metrics</text><line style="stroke:#181818;stroke-width:1.5;" x1="527.5" x2="537.5" y1="199.4648" y2="199.4648"/><rect fill="#F1F1F1" height="34.1328" style="stroke:#181818;stroke-width:1.5;" width="128" x="399.5" y="182.3984"/><text fill="#000000" font-family="sans-serif" font-size="12" lengthAdjust="spacing" textLength="108" x="409.5" y="204">Identify Quick Wins</text><line style="stroke:#181818;stroke-width:1.5;" x1="537.5" x2="678" y1="150.332" y2="150.332"/><rect fill="#F1F1F1" height="34.1328" style="stroke:#181818;stroke-width:1.5;" width="225" x="678" y="133.2656"/><text fill="#000000" font-family="sans-serif" font-size="12" lengthAdjust="spacing" textLength="205" x="688" y="154.8672">Model of AsIs Processes Completed</text><line style="stroke:#181818;stroke-width:1.5;" x1="780.5" x2="790.5" y1="199.4648" y2="199.4648"/><rect fill="#F1F1F1" height="34.1328" style="stroke:#181818;stroke-width:1.5;" width="233" x="547.5" y="182.3984"/><text fill="#000000" font-family="sans-serif" font-size="12" lengthAdjust="spacing" textLength="213" x="557.5" y="204">Model of AsIs Processes Completed1</text><line style="stroke:#181818;stroke-width:1.5;" x1="790.5" x2="800.5" y1="199.4648" y2="199.4648"/><rect fill="#F1F1F1" height="34.1328" style="stroke:#181818;stroke-width:1.5;" width="233" x="800.5" y="182.3984"/><text fill="#000000" font-family="sans-serif" font-size="12" lengthAdjust="spacing" textLength="213" x="810.5" y="204">Model of AsIs Processes Completed2</text><line style="stroke:#181818;stroke-width:1.5;" x1="790.5" x2="790.5" y1="167.3984" y2="199.4648"/><line style="stroke:#181818;stroke-width:1.5;" x1="537.5" x2="537.5" y1="118.2656" y2="199.4648"/><line style="stroke:#181818;stroke-width:1.5;" x1="73.5" x2="537.5" y1="64.1328" y2="64.1328"/><rect fill="#F1F1F1" height="34.1328" style="stroke:#181818;stroke-width:1.5;" width="203" x="204" y="10"/><text fill="#000000" font-family="sans-serif" font-size="12" lengthAdjust="spacing" textLength="183" x="214" y="31.6016">Business Process Modelling WBS</text><line style="stroke:#181818;stroke-width:1.5;" x1="305.5" x2="305.5" y1="44.1328" y2="64.1328"/></g></svg>