<?xml version="1.0" encoding="UTF-8" standalone="no"?><svg xmlns="http://www.w3.org/2000/svg" xmlns:xlink="http://www.w3.org/1999/xlink" contentStyleType="text/css" height="197px" preserveAspectRatio="none" style="width:206px;height:197px;background:#FFFFFF;" version="1.1" viewBox="0 0 206 197" width="206px" zoomAndPan="magnify"><defs/><g><ellipse cx="103" cy="20" fill="#222222" rx="10" ry="10" style="stroke:#222222;stroke-width:1.0;"/><rect fill="#555555" height="6" rx="2.5" ry="2.5" style="stroke:#555555;stroke-width:1.0;" width="184" x="11" y="50"/><rect fill="#F1F1F1" height="34.1328" rx="12.5" ry="12.5" style="stroke:#181818;stroke-width:0.5;" width="66" x="23" y="76"/><text fill="#000000" font-family="sans-serif" font-size="12" lengthAdjust="spacing" textLength="46" x="33" y="97.6016">action 1</text><rect fill="#F1F1F1" height="34.1328" rx="12.5" ry="12.5" style="stroke:#181818;stroke-width:0.5;" width="66" x="117" y="76"/><text fill="#000000" font-family="sans-serif" font-size="12" lengthAdjust="spacing" textLength="46" x="127" y="97.6016">action 2</text><polygon fill="#F1F1F1" points="103,120.1328,115,132.1328,103,144.1328,91,132.1328,103,120.1328" style="stroke:#181818;stroke-width:0.5;"/><ellipse cx="103" cy="175.1328" rx="11" ry="11" style="stroke:#222222;stroke-width:1.0;fill:none;"/><ellipse cx="103" cy="175.1328" fill="#222222" rx="6" ry="6" style="stroke:#111111;stroke-width:1.0;"/><line style="stroke:#181818;stroke-width:1.0;" x1="56" x2="56" y1="56" y2="76"/><polygon fill="#181818" points="52,66,56,76,60,66,56,70" style="stroke:#181818;stroke-width:1.0;"/><line style="stroke:#181818;stroke-width:1.0;" x1="150" x2="150" y1="56" y2="76"/><polygon fill="#181818" points="146,66,150,76,154,66,150,70" style="stroke:#181818;stroke-width:1.0;"/><line style="stroke:#181818;stroke-width:1.0;" x1="56" x2="56" y1="110.1328" y2="132.1328"/><line style="stroke:#181818;stroke-width:1.0;" x1="56" x2="91" y1="132.1328" y2="132.1328"/><polygon fill="#181818" points="81,128.1328,91,132.1328,81,136.1328,85,132.1328" style="stroke:#181818;stroke-width:1.0;"/><line style="stroke:#181818;stroke-width:1.0;" x1="150" x2="150" y1="110.1328" y2="132.1328"/><line style="stroke:#181818;stroke-width:1.0;" x1="150" x2="115" y1="132.1328" y2="132.1328"/><polygon fill="#181818" points="125,128.1328,115,132.1328,125,136.1328,121,132.1328" style="stroke:#181818;stroke-width:1.0;"/><line style="stroke:#181818;stroke-width:1.0;" x1="103" x2="103" y1="30" y2="50"/><polygon fill="#181818" points="99,40,103,50,107,40,103,44" style="stroke:#181818;stroke-width:1.0;"/><line style="stroke:#181818;stroke-width:1.0;" x1="103" x2="103" y1="144.1328" y2="164.1328"/><polygon fill="#181818" points="99,154.1328,103,164.1328,107,154.1328,103,158.1328" style="stroke:#181818;stroke-width:1.0;"/></g></svg>