<?xml version="1.0" encoding="UTF-8" standalone="no"?><svg xmlns="http://www.w3.org/2000/svg" xmlns:xlink="http://www.w3.org/1999/xlink" contentStyleType="text/css" height="461px" preserveAspectRatio="none" style="width:584px;height:461px;background:#F9F9F9;" version="1.1" viewBox="0 0 584 461" width="584px" zoomAndPan="magnify"><defs/><g><rect fill="#FFC0CB" height="436.8633" style="stroke:#FFC0CB;stroke-width:1.0;" width="176.75" x="15" y="12.2969"/><ellipse cx="119.25" cy="48.4961" fill="#222222" rx="10" ry="10" style="stroke:#222222;stroke-width:1.0;"/><polygon fill="#F1F1F1" points="102.75,78.4961,135.75,78.4961,147.75,90.4961,135.75,102.4961,102.75,102.4961,90.75,90.4961,102.75,78.4961" style="stroke:#181818;stroke-width:0.5;"/><text fill="#000000" font-family="sans-serif" font-size="11" lengthAdjust="spacing" textLength="33" x="102.75" y="94.6533">color?</text><text fill="#000000" font-family="sans-serif" font-size="11" lengthAdjust="spacing" textLength="18" x="72.75" y="88.1758">red</text><text fill="#000000" font-family="sans-serif" font-size="11" lengthAdjust="spacing" textLength="39" x="147.75" y="88.1758">not red</text><rect fill="#FFC0CB" height="34.1328" rx="3.5" ry="3.5" style="stroke:#181818;stroke-width:0.5;" width="82" x="21" y="122.4961"/><text fill="#000000" font-family="sans-serif" font-size="12" font-weight="bold" lengthAdjust="spacing" textLength="62" x="31" y="144.0977">action red</text><rect fill="#F1F1F1" height="34.1328" rx="3.5" ry="3.5" style="stroke:#181818;stroke-width:0.5;" width="46" x="39" y="176.6289"/><text fill="#000000" font-family="sans-serif" font-size="12" lengthAdjust="spacing" textLength="26" x="49" y="198.2305">foo1</text><polygon fill="#F1F1F1" points="119.25,220.7617,131.25,232.7617,119.25,244.7617,107.25,232.7617,119.25,220.7617" style="stroke:#181818;stroke-width:0.5;"/><line style="stroke:#000000;stroke-width:1.5;" x1="15" x2="15" y1="12.2969" y2="449.1602"/><rect fill="#D3D3D3" height="436.8633" style="stroke:#D3D3D3;stroke-width:1.0;" width="161" x="191.75" y="12.2969"/><rect fill="#D3D3D3" height="34.1328" rx="3.5" ry="3.5" style="stroke:#181818;stroke-width:0.5;" width="107" x="219.75" y="122.4961"/><text fill="#000000" font-family="sans-serif" font-size="12" font-weight="bold" lengthAdjust="spacing" textLength="87" x="229.75" y="144.0977">action not red</text><rect fill="#F1F1F1" height="34.1328" rx="3.5" ry="3.5" style="stroke:#181818;stroke-width:0.5;" width="46" x="250.25" y="176.6289"/><text fill="#000000" font-family="sans-serif" font-size="12" lengthAdjust="spacing" textLength="26" x="260.25" y="198.2305">foo2</text><line style="stroke:#000000;stroke-width:1.5;" x1="191.75" x2="191.75" y1="12.2969" y2="449.1602"/><rect fill="#ADD8E6" height="34.1328" rx="3.5" ry="3.5" style="stroke:#181818;stroke-width:0.5;" width="46" x="383.75" y="264.7617"/><text fill="#000000" font-family="sans-serif" font-size="12" lengthAdjust="spacing" textLength="26" x="393.75" y="286.3633">foo3</text><rect fill="#F1F1F1" height="34.1328" rx="3.5" ry="3.5" style="stroke:#181818;stroke-width:0.5;" width="46" x="383.75" y="318.8945"/><text fill="#000000" font-family="sans-serif" font-size="12" lengthAdjust="spacing" textLength="26" x="393.75" y="340.4961">foo4</text><line style="stroke:#000000;stroke-width:1.5;" x1="352.75" x2="352.75" y1="12.2969" y2="449.1602"/><rect fill="#98FB98" height="34.1328" rx="3.5" ry="3.5" style="stroke:#181818;stroke-width:0.5;" width="46" x="489.75" y="373.0273"/><text fill="#000000" font-family="sans-serif" font-size="12" lengthAdjust="spacing" textLength="26" x="499.75" y="394.6289">foo5</text><ellipse cx="512.75" cy="438.1602" rx="11" ry="11" style="stroke:#222222;stroke-width:1.0;fill:none;"/><ellipse cx="512.75" cy="438.1602" fill="#222222" rx="6" ry="6" style="stroke:#111111;stroke-width:1.0;"/><line style="stroke:#000000;stroke-width:1.5;" x1="458.75" x2="458.75" y1="12.2969" y2="449.1602"/><line style="stroke:#000000;stroke-width:1.5;" x1="564.75" x2="564.75" y1="12.2969" y2="449.1602"/><line style="stroke:#191919;stroke-width:1.0;" x1="62" x2="62" y1="156.6289" y2="176.6289"/><polygon fill="#191919" points="58,166.6289,62,176.6289,66,166.6289,62,170.6289" style="stroke:#191919;stroke-width:1.0;"/><line style="stroke:#191919;stroke-width:1.0;" x1="90.75" x2="62" y1="90.4961" y2="90.4961"/><line style="stroke:#191919;stroke-width:1.0;" x1="62" x2="62" y1="90.4961" y2="122.4961"/><polygon fill="#191919" points="58,112.4961,62,122.4961,66,112.4961,62,116.4961" style="stroke:#191919;stroke-width:1.0;"/><line style="stroke:#191919;stroke-width:1.0;" x1="62" x2="62" y1="210.7617" y2="232.7617"/><line style="stroke:#191919;stroke-width:1.0;" x1="62" x2="107.25" y1="232.7617" y2="232.7617"/><polygon fill="#191919" points="97.25,228.7617,107.25,232.7617,97.25,236.7617,101.25,232.7617" style="stroke:#191919;stroke-width:1.0;"/><line style="stroke:#191919;stroke-width:1.0;" x1="119.25" x2="119.25" y1="58.4961" y2="78.4961"/><polygon fill="#191919" points="115.25,68.4961,119.25,78.4961,123.25,68.4961,119.25,72.4961" style="stroke:#191919;stroke-width:1.0;"/><line style="stroke:#191919;stroke-width:1.0;" x1="273.25" x2="273.25" y1="156.6289" y2="176.6289"/><polygon fill="#191919" points="269.25,166.6289,273.25,176.6289,277.25,166.6289,273.25,170.6289" style="stroke:#191919;stroke-width:1.0;"/><line style="stroke:#191919;stroke-width:1.0;" x1="406.75" x2="406.75" y1="298.8945" y2="318.8945"/><polygon fill="#191919" points="402.75,308.8945,406.75,318.8945,410.75,308.8945,406.75,312.8945" style="stroke:#191919;stroke-width:1.0;"/><line style="stroke:#191919;stroke-width:1.0;" x1="512.75" x2="512.75" y1="407.1602" y2="427.1602"/><polygon fill="#191919" points="508.75,417.1602,512.75,427.1602,516.75,417.1602,512.75,421.1602" style="stroke:#191919;stroke-width:1.0;"/><line style="stroke:#191919;stroke-width:1.0;" x1="147.75" x2="273.25" y1="90.4961" y2="90.4961"/><line style="stroke:#191919;stroke-width:1.0;" x1="273.25" x2="273.25" y1="90.4961" y2="122.4961"/><polygon fill="#191919" points="269.25,112.4961,273.25,122.4961,277.25,112.4961,273.25,116.4961" style="stroke:#191919;stroke-width:1.0;"/><line style="stroke:#191919;stroke-width:1.0;" x1="273.25" x2="273.25" y1="210.7617" y2="232.7617"/><line style="stroke:#191919;stroke-width:1.0;" x1="273.25" x2="131.25" y1="232.7617" y2="232.7617"/><polygon fill="#191919" points="141.25,228.7617,131.25,232.7617,141.25,236.7617,137.25,232.7617" style="stroke:#191919;stroke-width:1.0;"/><line style="stroke:#191919;stroke-width:1.0;" x1="119.25" x2="119.25" y1="244.7617" y2="249.7617"/><line style="stroke:#191919;stroke-width:1.0;" x1="119.25" x2="406.75" y1="249.7617" y2="249.7617"/><line style="stroke:#191919;stroke-width:1.0;" x1="406.75" x2="406.75" y1="249.7617" y2="264.7617"/><polygon fill="#191919" points="402.75,254.7617,406.75,264.7617,410.75,254.7617,406.75,258.7617" style="stroke:#191919;stroke-width:1.0;"/><line style="stroke:#191919;stroke-width:1.0;" x1="406.75" x2="406.75" y1="353.0273" y2="358.0273"/><line style="stroke:#191919;stroke-width:1.0;" x1="406.75" x2="512.75" y1="358.0273" y2="358.0273"/><line style="stroke:#191919;stroke-width:1.0;" x1="512.75" x2="512.75" y1="358.0273" y2="373.0273"/><polygon fill="#191919" points="508.75,363.0273,512.75,373.0273,516.75,363.0273,512.75,367.0273" style="stroke:#191919;stroke-width:1.0;"/><text fill="#000000" font-family="sans-serif" font-size="18" lengthAdjust="spacing" textLength="120" x="43.375" y="29.6992">Actor_For_red</text><text fill="#000000" font-family="sans-serif" font-size="18" lengthAdjust="spacing" textLength="151" x="196.75" y="29.6992">Actor_For_no_red</text><text fill="#000000" font-family="sans-serif" font-size="18" lengthAdjust="spacing" textLength="96" x="357.75" y="29.6992">Next_Actor</text><text fill="#000000" font-family="sans-serif" font-size="18" lengthAdjust="spacing" textLength="96" x="463.75" y="29.6992">Final_Actor</text></g></svg>