<?xml version="1.0" encoding="UTF-8" standalone="no"?><svg xmlns="http://www.w3.org/2000/svg" xmlns:xlink="http://www.w3.org/1999/xlink" contentStyleType="text/css" height="910px" preserveAspectRatio="none" style="width:919px;height:910px;background:#FFFFFF;" version="1.1" viewBox="0 0 919 910" width="919px" zoomAndPan="magnify"><defs/><g><!--MD5=[84dda40acb3410cad7262261daba2aaf]
cluster c1--><g id="cluster_c1"><rect height="593" rx="2.5" ry="2.5" style="stroke:#444444;stroke-width:1.0;fill:none;stroke-dasharray:7.0,7.0;" width="906" x="7" y="190"/><text fill="#444444" font-family="sans-serif" font-size="16" font-weight="bold" lengthAdjust="spacing" textLength="181" x="369.5" y="207.4688">Customer Information</text><text fill="#444444" font-family="sans-serif" font-size="12" font-weight="bold" lengthAdjust="spacing" textLength="53" x="433.5" y="222.4453">[System]</text></g><!--MD5=[4541fb81c80c07473fe4b07432ef0971]
entity app--><g id="elem_app"><rect fill="#438DD5" height="102.4414" rx="2.5" ry="2.5" style="stroke:#3C7FC0;stroke-width:0.5;" width="198" x="62" y="241"/><text fill="#FFFFFF" font-family="sans-serif" font-size="16" font-weight="bold" lengthAdjust="spacing" textLength="178" x="72" y="266.4688">Customer Application</text><text fill="#FFFFFF" font-family="sans-serif" font-size="12" font-style="italic" lengthAdjust="spacing" textLength="116" x="103" y="281.4453">[Javascript, Angular]</text><text fill="#FFFFFF" font-family="sans-serif" font-size="14" lengthAdjust="spacing" textLength="4" x="159" y="297.5117"> </text><text fill="#FFFFFF" font-family="sans-serif" font-size="14" lengthAdjust="spacing" textLength="138" x="92" y="314">Allows customers to</text><text fill="#FFFFFF" font-family="sans-serif" font-size="14" lengthAdjust="spacing" textLength="140" x="91" y="330.4883">manage their profile</text></g><!--MD5=[3938681022872452b9357901721a7bd2]
entity customer_service--><g id="elem_customer_service"><path d="M125,447 L273,447 L291,465 L291,531.4414 L273,549.4414 L125,549.4414 L107,531.4414 L107,465 L125,447 " fill="#6495ED" style="stroke:#3C7FC0;stroke-width:0.5;"/><text fill="#FFFFFF" font-family="sans-serif" font-size="16" font-weight="bold" lengthAdjust="spacing" textLength="141" x="128.5" y="472.4688">Customer Service</text><text fill="#FFFFFF" font-family="sans-serif" font-size="12" font-style="italic" lengthAdjust="spacing" textLength="105" x="146.5" y="487.4453">[Java, Spring Boot]</text><text fill="#FFFFFF" font-family="sans-serif" font-size="14" lengthAdjust="spacing" textLength="4" x="197" y="503.5117"> </text><text fill="#FFFFFF" font-family="sans-serif" font-size="14" lengthAdjust="spacing" textLength="156" x="121" y="520">The point of access for</text><text fill="#FFFFFF" font-family="sans-serif" font-size="14" lengthAdjust="spacing" textLength="149" x="124.5" y="536.4883">customer information</text></g><!--MD5=[dba6d6074aa896215894e7a834d404ca]
entity message_bus--><g id="elem_message_bus"><rect fill="#438DD5" height="102.4414" rx="2.5" ry="2.5" style="stroke:#3C7FC0;stroke-width:0.5;" width="184" x="461" y="241"/><text fill="#FFFFFF" font-family="sans-serif" font-size="16" font-weight="bold" lengthAdjust="spacing" textLength="106" x="500" y="266.4688">Message Bus</text><text fill="#FFFFFF" font-family="sans-serif" font-size="12" font-style="italic" lengthAdjust="spacing" textLength="65" x="520.5" y="281.4453">[RabbitMQ]</text><text fill="#FFFFFF" font-family="sans-serif" font-size="14" lengthAdjust="spacing" textLength="4" x="551" y="297.5117"> </text><text fill="#FFFFFF" font-family="sans-serif" font-size="14" lengthAdjust="spacing" textLength="156" x="475" y="314">Transport for business</text><text fill="#FFFFFF" font-family="sans-serif" font-size="14" lengthAdjust="spacing" textLength="44" x="531" y="330.4883">events</text></g><!--MD5=[03d530edb6a1e95e334cdff020d059b7]
entity reporting_service--><g id="elem_reporting_service"><path d="M421.5,447 L604.5,447 L622.5,465 L622.5,531.4414 L604.5,549.4414 L421.5,549.4414 L403.5,531.4414 L403.5,465 L421.5,447 " fill="#6495ED" style="stroke:#3C7FC0;stroke-width:0.5;"/><text fill="#FFFFFF" font-family="sans-serif" font-size="16" font-weight="bold" lengthAdjust="spacing" textLength="143" x="441.5" y="472.4688">Reporting Service</text><text fill="#FFFFFF" font-family="sans-serif" font-size="12" font-style="italic" lengthAdjust="spacing" textLength="37" x="494.5" y="487.4453">[Ruby]</text><text fill="#FFFFFF" font-family="sans-serif" font-size="14" lengthAdjust="spacing" textLength="4" x="511" y="503.5117"> </text><text fill="#FFFFFF" font-family="sans-serif" font-size="14" lengthAdjust="spacing" textLength="191" x="417.5" y="520">Creates normalised data for</text><text fill="#FFFFFF" font-family="sans-serif" font-size="14" lengthAdjust="spacing" textLength="133" x="446.5" y="536.4883">reporting purposes</text></g><!--MD5=[d281438539ff50848aa8b12911b4942e]
entity audit_service--><g id="elem_audit_service"><path d="M675.5,447 L856.5,447 L874.5,465 L874.5,531.4414 L856.5,549.4414 L675.5,549.4414 L657.5,531.4414 L657.5,465 L675.5,447 " fill="#6495ED" style="stroke:#3C7FC0;stroke-width:0.5;"/><text fill="#FFFFFF" font-family="sans-serif" font-size="16" font-weight="bold" lengthAdjust="spacing" textLength="107" x="712.5" y="472.4688">Audit Service</text><text fill="#FFFFFF" font-family="sans-serif" font-size="12" font-style="italic" lengthAdjust="spacing" textLength="58" x="737" y="487.4453">[C#/.NET]</text><text fill="#FFFFFF" font-family="sans-serif" font-size="14" lengthAdjust="spacing" textLength="4" x="764" y="503.5117"> </text><text fill="#FFFFFF" font-family="sans-serif" font-size="14" lengthAdjust="spacing" textLength="189" x="671.5" y="520">Provides organisation-wide</text><text fill="#FFFFFF" font-family="sans-serif" font-size="14" lengthAdjust="spacing" textLength="117" x="707.5" y="536.4883">auditing facilities</text></g><!--MD5=[5a3f2a73ed6d331241bacd7eb084a338]
entity customer_db--><g id="elem_customer_db"><path d="M89,665.5 C89,655.5 199,655.5 199,655.5 C199,655.5 309,655.5 309,665.5 L309,740.4531 C309,750.4531 199,750.4531 199,750.4531 C199,750.4531 89,750.4531 89,740.4531 L89,665.5 " fill="#87CEFA" style="stroke:#3C7FC0;stroke-width:0.5;"/><path d="M89,665.5 C89,675.5 199,675.5 199,675.5 C199,675.5 309,675.5 309,665.5 " fill="none" style="stroke:#3C7FC0;stroke-width:0.5;"/><text fill="#FFFFFF" font-family="sans-serif" font-size="16" font-weight="bold" lengthAdjust="spacing" textLength="159" x="119.5" y="694.9688">Customer Database</text><text fill="#FFFFFF" font-family="sans-serif" font-size="12" font-style="italic" lengthAdjust="spacing" textLength="71" x="163.5" y="709.9453">[Oracle 12c]</text><text fill="#FFFFFF" font-family="sans-serif" font-size="14" lengthAdjust="spacing" textLength="4" x="197" y="726.0117"> </text><text fill="#FFFFFF" font-family="sans-serif" font-size="14" lengthAdjust="spacing" textLength="196" x="103" y="742.5">Stores customer information</text></g><!--MD5=[819454c33a690d73f74d342a973445f2]
entity reporting_db--><g id="elem_reporting_db"><path d="M403.5,649 C403.5,639 513,639 513,639 C513,639 622.5,639 622.5,649 L622.5,756.9297 C622.5,766.9297 513,766.9297 513,766.9297 C513,766.9297 403.5,766.9297 403.5,756.9297 L403.5,649 " fill="#87CEFA" style="stroke:#3C7FC0;stroke-width:0.5;"/><path d="M403.5,649 C403.5,659 513,659 513,659 C513,659 622.5,659 622.5,649 " fill="none" style="stroke:#3C7FC0;stroke-width:0.5;"/><text fill="#FFFFFF" font-family="sans-serif" font-size="16" font-weight="bold" lengthAdjust="spacing" textLength="161" x="432.5" y="678.4688">Reporting Database</text><text fill="#FFFFFF" font-family="sans-serif" font-size="12" font-style="italic" lengthAdjust="spacing" textLength="45" x="490.5" y="693.4453">[MySQL]</text><text fill="#FFFFFF" font-family="sans-serif" font-size="14" lengthAdjust="spacing" textLength="4" x="511" y="709.5117"> </text><text fill="#FFFFFF" font-family="sans-serif" font-size="14" lengthAdjust="spacing" textLength="191" x="417.5" y="726">Stores a normalized version</text><text fill="#FFFFFF" font-family="sans-serif" font-size="14" lengthAdjust="spacing" textLength="177" x="422.5" y="742.4883">of all business data for ad</text><text fill="#FFFFFF" font-family="sans-serif" font-size="14" lengthAdjust="spacing" textLength="162" x="432" y="758.9766">hoc reporting purposes</text></g><!--MD5=[203c482608765d38859cc3eb9e6e5e02]
entity audit_store--><g id="elem_audit_store"><rect fill="#87CEFA" height="102.4414" rx="12.5" ry="12.5" style="stroke:#3C7FC0;stroke-width:0.5;" width="204" x="664" y="652"/><text fill="#FFFFFF" font-family="sans-serif" font-size="16" font-weight="bold" lengthAdjust="spacing" textLength="91" x="720.5" y="677.4688">Audit Store</text><text fill="#FFFFFF" font-family="sans-serif" font-size="12" font-style="italic" lengthAdjust="spacing" textLength="72" x="730" y="692.4453">[Event Store]</text><text fill="#FFFFFF" font-family="sans-serif" font-size="14" lengthAdjust="spacing" textLength="4" x="764" y="708.5117"> </text><text fill="#FFFFFF" font-family="sans-serif" font-size="14" lengthAdjust="spacing" textLength="172" x="680" y="725">Stores information about</text><text fill="#FFFFFF" font-family="sans-serif" font-size="14" lengthAdjust="spacing" textLength="184" x="674" y="741.4883">events that have happened</text></g><!--MD5=[92848cbaf65985a669855153c5362c37]
entity customer--><g id="elem_customer"><ellipse cx="161" cy="23.9739" fill="#08427B" rx="17.9739" ry="17.9739" style="stroke:#073B6F;stroke-width:0.5;"/><rect fill="#08427B" height="71.8203" rx="17.9739" ry="17.9739" style="stroke:#073B6F;stroke-width:0.5;" width="102" x="110" y="41.9479"/><text fill="#FFFFFF" font-family="sans-serif" font-size="16" font-weight="bold" lengthAdjust="spacing" textLength="79" x="121.5" y="67.4166">Customer</text><text fill="#FFFFFF" font-family="sans-serif" font-size="14" lengthAdjust="spacing" textLength="4" x="159" y="84.3268"> </text><text fill="#FFFFFF" font-family="sans-serif" font-size="14" lengthAdjust="spacing" textLength="78" x="124" y="100.815">A customer</text></g><!--MD5=[9d070c17d60af0fda271a0e3ab29c6d1]
link customer to app--><g id="link_customer_app"><path d="M161,114.06 C161,149.58 161,196.34 161,232.87 " fill="none" id="customer-to-app" style="stroke:#666666;stroke-width:1.0;"/><polygon fill="#666666" points="161,240.97,164,232.97,158,232.97,161,240.97" style="stroke:#666666;stroke-width:1.0;"/><text fill="#666666" font-family="sans-serif" font-size="12" font-weight="bold" lengthAdjust="spacing" textLength="30" x="170" y="156.6016">Uses</text><text fill="#666666" font-family="sans-serif" font-size="12" font-style="italic" lengthAdjust="spacing" textLength="46" x="162" y="170.7344">[HTTPS]</text></g><!--MD5=[51e407f081fd82403ac79d439d8428c9]
link app to customer_service--><g id="link_app_customer_service"><path d="M170.34,343.17 C175.73,372.08 182.53,408.56 188.15,438.74 " fill="none" id="app-to-customer_service" style="stroke:#666666;stroke-width:1.0;"/><polygon fill="#666666" points="189.63,446.67,191.1209,438.2571,185.2215,439.3512,189.63,446.67" style="stroke:#666666;stroke-width:1.0;"/><text fill="#666666" font-family="sans-serif" font-size="12" font-weight="bold" lengthAdjust="spacing" textLength="113" x="185.5" y="385.6016">Updates customer</text><text fill="#666666" font-family="sans-serif" font-size="12" font-weight="bold" lengthAdjust="spacing" textLength="113" x="187.5" y="399.7344">information using</text><text fill="#666666" font-family="sans-serif" font-size="12" font-style="italic" lengthAdjust="spacing" textLength="120" x="184" y="413.8672">[async, JSON/HTTPS]</text></g><!--MD5=[0a0e8b647d7ce261624080a2974e27fc]
reverse link app to customer_service--><g id="link_app_customer_service"><path d="M83.86,349.01 C65.11,369.56 53.79,393.54 67,417 C76.4,433.69 90.85,447.3 106.79,458.25 " fill="none" id="app-backto-customer_service" style="stroke:#666666;stroke-width:1.0;"/><polygon fill="#666666" points="89.62,343.03,81.9148,346.7219,86.2423,350.878,89.62,343.03" style="stroke:#666666;stroke-width:1.0;"/><text fill="#666666" font-family="sans-serif" font-size="12" font-weight="bold" lengthAdjust="spacing" textLength="99" x="68" y="392.6016">Sends events to</text><text fill="#666666" font-family="sans-serif" font-size="12" font-style="italic" lengthAdjust="spacing" textLength="70" x="82.5" y="406.7344">[WebSocket]</text></g><!--MD5=[8888297219a7b23cd24ecf3962f71c36]
reverse link message_bus to customer_service--><g id="link_message_bus_customer_service"><path d="M453.41,330.79 C425.38,342.89 395.36,357.27 369,373 C341.82,389.22 338.41,398.12 313,417 C299.8,426.8 285.57,437.05 271.79,446.8 " fill="none" id="message_bus-backto-customer_service" style="stroke:#666666;stroke-width:1.0;"/><polygon fill="#666666" points="460.87,327.61,452.3346,327.9939,454.6917,333.5116,460.87,327.61" style="stroke:#666666;stroke-width:1.0;"/><text fill="#666666" font-family="sans-serif" font-size="12" font-weight="bold" lengthAdjust="spacing" textLength="146" x="370" y="392.6016">Sends customer update</text><text fill="#666666" font-family="sans-serif" font-size="12" font-weight="bold" lengthAdjust="spacing" textLength="58" x="416" y="406.7344">events to</text></g><!--MD5=[3a9ae2bc45f014f73ae4ec094b568494]
link customer_service to customer_db--><g id="link_customer_service_customer_db"><path d="M199,549.18 C199,578.93 199,616.65 199,647.18 " fill="none" id="customer_service-to-customer_db" style="stroke:#666666;stroke-width:1.0;"/><polygon fill="#666666" points="199,655.18,202,647.18,196,647.18,199,655.18" style="stroke:#666666;stroke-width:1.0;"/><text fill="#666666" font-family="sans-serif" font-size="12" font-weight="bold" lengthAdjust="spacing" textLength="86" x="200" y="591.6016">Stores data in</text><text fill="#666666" font-family="sans-serif" font-size="12" font-style="italic" lengthAdjust="spacing" textLength="36" x="225" y="605.7344">[JDBC]</text></g><!--MD5=[aab3e1d17952107c7943e6111a55934d]
link message_bus to reporting_service--><g id="link_message_bus_reporting_service"><path d="M543.16,343.17 C537.49,372.08 530.34,408.56 524.42,438.74 " fill="none" id="message_bus-to-reporting_service" style="stroke:#666666;stroke-width:1.0;"/><polygon fill="#666666" points="522.87,446.67,527.345,439.3916,521.4558,438.2438,522.87,446.67" style="stroke:#666666;stroke-width:1.0;"/><text fill="#666666" font-family="sans-serif" font-size="12" font-weight="bold" lengthAdjust="spacing" textLength="146" x="537" y="392.6016">Sends customer update</text><text fill="#666666" font-family="sans-serif" font-size="12" font-weight="bold" lengthAdjust="spacing" textLength="58" x="583" y="406.7344">events to</text></g><!--MD5=[47d0ff9262dcd057455e43360ea526e6]
link message_bus to audit_service--><g id="link_message_bus_audit_service"><path d="M645.19,334.73 C663.34,345.54 681.29,358.34 696,373 C714.96,391.89 730.41,416.99 741.92,439.66 " fill="none" id="message_bus-to-audit_service" style="stroke:#666666;stroke-width:1.0;"/><polygon fill="#666666" points="745.52,446.92,744.6527,438.4201,739.2776,441.0863,745.52,446.92" style="stroke:#666666;stroke-width:1.0;"/><text fill="#666666" font-family="sans-serif" font-size="12" font-weight="bold" lengthAdjust="spacing" textLength="146" x="729" y="392.6016">Sends customer update</text><text fill="#666666" font-family="sans-serif" font-size="12" font-weight="bold" lengthAdjust="spacing" textLength="58" x="775" y="406.7344">events to</text></g><!--MD5=[98a257615ec003bc19f8f9f5c1b27e75]
link reporting_service to reporting_db--><g id="link_reporting_service_reporting_db"><path d="M513,549.18 C513,573.76 513,603.79 513,630.7 " fill="none" id="reporting_service-to-reporting_db" style="stroke:#666666;stroke-width:1.0;"/><polygon fill="#666666" points="513,638.94,516,630.94,510,630.94,513,638.94" style="stroke:#666666;stroke-width:1.0;"/><text fill="#666666" font-family="sans-serif" font-size="12" font-weight="bold" lengthAdjust="spacing" textLength="86" x="514" y="598.6016">Stores data in</text></g><!--MD5=[908e6d2f846515fd3481ab93e375cb8c]
link audit_service to audit_store--><g id="link_audit_service_audit_store"><path d="M766,549.18 C766,577.73 766,613.62 766,643.45 " fill="none" id="audit_service-to-audit_store" style="stroke:#666666;stroke-width:1.0;"/><polygon fill="#666666" points="766,651.69,769,643.69,763,643.69,766,651.69" style="stroke:#666666;stroke-width:1.0;"/><text fill="#666666" font-family="sans-serif" font-size="12" font-weight="bold" lengthAdjust="spacing" textLength="100" x="767" y="598.6016">Stores events in</text></g><!--MD5=[7ed498674e62ca5e4e9828f654841866]
link reporting_service to audit_service--><rect height="98.4414" rx="7.5" ry="7.5" style="stroke:#00000000;stroke-width:1.0;fill:none;" width="220" x="677" y="796"/><rect height="16.4883" style="stroke:none;stroke-width:1.0;fill:none;" width="208" x="683" y="804"/><text fill="#000000" font-family="sans-serif" font-size="14" font-weight="bold" lengthAdjust="spacing" textLength="51" x="683" y="817.5352">Legend</text><text fill="#FFFFFF" font-family="sans-serif" font-size="14" lengthAdjust="spacing" textLength="4" x="734" y="817.5352"> </text><rect fill="#08427B" height="16.4883" style="stroke:none;stroke-width:1.0;" width="208" x="683" y="820.4883"/><text fill="#073B6F" font-family="sans-serif" font-size="14" lengthAdjust="spacing" textLength="8" x="687" y="834.0234">▯</text><text fill="#FFFFFF" font-family="sans-serif" font-size="14" lengthAdjust="spacing" textLength="4" x="695" y="834.0234"> </text><text fill="#FFFFFF" font-family="sans-serif" font-size="14" lengthAdjust="spacing" textLength="48" x="703" y="834.0234">person</text><text fill="#FFFFFF" font-family="sans-serif" font-size="14" lengthAdjust="spacing" textLength="4" x="755" y="834.0234"> </text><rect fill="#438DD5" height="16.4883" style="stroke:none;stroke-width:1.0;" width="208" x="683" y="836.9766"/><text fill="#3C7FC0" font-family="sans-serif" font-size="14" lengthAdjust="spacing" textLength="8" x="687" y="850.5117">▯</text><text fill="#FFFFFF" font-family="sans-serif" font-size="14" lengthAdjust="spacing" textLength="4" x="695" y="850.5117"> </text><text fill="#FFFFFF" font-family="sans-serif" font-size="14" lengthAdjust="spacing" textLength="65" x="703" y="850.5117">container</text><text fill="#FFFFFF" font-family="sans-serif" font-size="14" lengthAdjust="spacing" textLength="4" x="772" y="850.5117"> </text><rect fill="#6495ED" height="16.4883" style="stroke:none;stroke-width:1.0;" width="208" x="683" y="853.4648"/><text fill="#6495ED" font-family="sans-serif" font-size="14" lengthAdjust="spacing" textLength="8" x="687" y="867">▯</text><text fill="#FFFFFF" font-family="sans-serif" font-size="14" lengthAdjust="spacing" textLength="4" x="695" y="867"> </text><text fill="#FFFFFF" font-family="sans-serif" font-size="14" lengthAdjust="spacing" textLength="180" x="703" y="867">micro service (eight sided)</text><text fill="#FFFFFF" font-family="sans-serif" font-size="14" lengthAdjust="spacing" textLength="4" x="887" y="867"> </text><rect fill="#87CEFA" height="16.4883" style="stroke:none;stroke-width:1.0;" width="208" x="683" y="869.9531"/><text fill="#87CEFA" font-family="sans-serif" font-size="14" lengthAdjust="spacing" textLength="8" x="687" y="883.4883">▯</text><text fill="#FFFFFF" font-family="sans-serif" font-size="14" lengthAdjust="spacing" textLength="4" x="695" y="883.4883"> </text><text fill="#FFFFFF" font-family="sans-serif" font-size="14" lengthAdjust="spacing" textLength="156" x="703" y="883.4883">storage (rounded box)</text><text fill="#FFFFFF" font-family="sans-serif" font-size="14" lengthAdjust="spacing" textLength="4" x="863" y="883.4883"> </text><line style="stroke:#00000000;stroke-width:1.0;" x1="683" x2="891" y1="804" y2="804"/><line style="stroke:#00000000;stroke-width:1.0;" x1="683" x2="891" y1="820.4883" y2="820.4883"/><line style="stroke:#00000000;stroke-width:1.0;" x1="683" x2="891" y1="836.9766" y2="836.9766"/><line style="stroke:#00000000;stroke-width:1.0;" x1="683" x2="891" y1="853.4648" y2="853.4648"/><line style="stroke:#00000000;stroke-width:1.0;" x1="683" x2="891" y1="869.9531" y2="869.9531"/><line style="stroke:#00000000;stroke-width:1.0;" x1="683" x2="891" y1="886.4414" y2="886.4414"/><line style="stroke:#00000000;stroke-width:1.0;" x1="683" x2="683" y1="804" y2="886.4414"/><line style="stroke:#00000000;stroke-width:1.0;" x1="891" x2="891" y1="804" y2="886.4414"/></g></svg>