<?xml version="1.0" encoding="UTF-8" standalone="no"?><svg xmlns="http://www.w3.org/2000/svg" xmlns:xlink="http://www.w3.org/1999/xlink" contentStyleType="text/css" height="488.9385px" preserveAspectRatio="none" style="width:500px;height:488px;background:#003153;" version="1.1" viewBox="0 0 500 488" width="500.2565px" zoomAndPan="magnify"><defs/><g><ellipse cx="313.8714" cy="27.9178" fill="#D9D3D0" rx="7.5453" ry="7.5453" style="stroke:none;stroke-width:0.7545347538707633;"/><g id="State1"><rect fill="#003153" height="37.7267" rx="9.4317" ry="9.4317" style="stroke:#D9D3D0;stroke-width:0.7545347538707633;" width="50.5538" x="348.2027" y="9.0544"/><line style="stroke:#D9D3D0;stroke-width:0.7545347538707633;" x1="348.2027" x2="398.7565" y1="29.4379" y2="29.4379"/><text fill="#D9D3D0" font-family="Verdana" font-size="10.5635" lengthAdjust="spacing" textLength="35.4631" x="355.748" y="23.4473">State1</text></g><g id="State2"><rect fill="#003153" height="37.7267" rx="9.4317" ry="9.4317" style="stroke:#D9D3D0;stroke-width:0.7545347538707633;" width="50.5538" x="207.8592" y="104.8803"/><line style="stroke:#D9D3D0;stroke-width:0.7545347538707633;" x1="207.8592" x2="258.4131" y1="125.2638" y2="125.2638"/><text fill="#D9D3D0" font-family="Verdana" font-size="10.5635" lengthAdjust="spacing" textLength="35.4631" x="215.4046" y="119.2732">State2</text></g><ellipse cx="238.4179" cy="476.866" fill="none" rx="7.5453" ry="7.5453" style="stroke:#D9D3D0;stroke-width:0.7545347538707633;"/><ellipse cx="238.7952" cy="477.2432" fill="#D9D3D0" rx="4.5272" ry="4.5272" style="stroke:none;stroke-width:0.7545347538707633;"/><path d="M124.1059,200.7062 L342.1664,200.7062 A9.4317,9.4317 0 0 1 351.5981,210.1379 L351.5981,221.0897 L114.6742,221.0897 L114.6742,210.1379 A9.4317,9.4317 0 0 1 124.1059,200.7062 " fill="#003153" style="stroke:#003153;stroke-width:0.7545347538707633;"/><path d="M114.6742,221.0897 L351.5981,221.0897 L351.5981,401.8008 A9.4317,9.4317 0 0 1 342.1664,411.2325 L124.1059,411.2325 A9.4317,9.4317 0 0 1 114.6742,401.8008 L114.6742,221.0897 " fill="#003153" style="stroke:#003153;stroke-width:0.7545347538707633;"/><rect height="210.5262" rx="9.4317" ry="9.4317" style="stroke:#D9D3D0;stroke-width:0.7545347538707633;fill:none;" width="236.9239" x="114.6742" y="200.7062"/><line style="stroke:#D9D3D0;stroke-width:0.7545347538707633;fill:none;" x1="114.6742" x2="351.5981" y1="221.0897" y2="221.0897"/><text fill="#D9D3D0" font-family="Verdana" font-size="10.5635" lengthAdjust="spacing" textLength="35.4631" x="215.4046" y="215.0991">State3</text><g id="State3.long1"><rect fill="#003153" height="53.6051" rx="9.4317" ry="9.4317" style="stroke:#D9D3D0;stroke-width:0.7545347538707633;" width="149.3979" x="123.7286" y="272.3981"/><line style="stroke:#D9D3D0;stroke-width:0.7545347538707633;" x1="123.7286" x2="273.1265" y1="305.6197" y2="305.6197"/><text fill="#D9D3D0" font-family="Verdana" font-size="10.5635" lengthAdjust="spacing" textLength="134.3072" x="131.274" y="286.791">Accumulate Enough Data</text><text fill="#D9D3D0" font-family="Verdana" font-size="10.5635" lengthAdjust="spacing" textLength="92.0532" x="152.4009" y="299.6291">Long State Name</text><text fill="#D9D3D0" font-family="Verdana" font-size="10.5635" lengthAdjust="spacing" textLength="55.081" x="127.5013" y="320.0126">Just a test</text></g><ellipse cx="198.4275" cy="236.935" fill="#D9D3D0" rx="7.5453" ry="7.5453" style="stroke:none;stroke-width:0.7545347538707633;"/><g id="State3.ProcessData"><rect fill="#003153" height="37.7267" rx="9.4317" ry="9.4317" style="stroke:#D9D3D0;stroke-width:0.7545347538707633;" width="78.4716" x="159.1917" y="365.9604"/><line style="stroke:#D9D3D0;stroke-width:0.7545347538707633;" x1="159.1917" x2="237.6634" y1="386.3439" y2="386.3439"/><text fill="#D9D3D0" font-family="Verdana" font-size="10.5635" lengthAdjust="spacing" textLength="63.3809" x="166.7371" y="380.3533">ProcessData</text></g><!--MD5=[cbbb8dc237c8185397a1ccf2b0af3080]
link *start*State3 to long1--><g id="link_*start*State3_long1"><path d="M198.4275,244.6539 C198.4275,250.5996 198.4275,259.5786 198.4275,268.5047 " fill="none" id="*start*State3-to-long1" style="stroke:#D9D3D0;stroke-width:0.7545347538707633;"/><polygon fill="#D9D3D0" points="198.4275,272.3226,201.4457,265.5318,198.4275,268.55,195.4094,265.5318,198.4275,272.3226" style="stroke:#D9D3D0;stroke-width:0.7545347538707633;"/></g><!--MD5=[cd06514976a2197e7c66cb27013135c0]
link long1 to long1--><g id="link_long1_long1"><path d="M273.134,292.7554 C281.3811,293.9778 286.7081,296.1207 286.7081,299.1841 C286.7081,301.7193 283.0562,303.6283 277.118,304.9035 " fill="none" id="long1-to-long1" style="stroke:#D9D3D0;stroke-width:0.7545347538707633;"/><polygon fill="#D9D3D0" points="273.134,305.6127,280.3475,307.3988,276.8488,304.954,279.2936,301.4553,273.134,305.6127" style="stroke:#D9D3D0;stroke-width:0.7545347538707633;"/><text fill="#D9D3D0" font-family="Verdana" font-size="9.809" lengthAdjust="spacing" textLength="49.0448" x="291.2353" y="303.3867">New Data</text></g><!--MD5=[02e543224095a440a3409c6f97e15d1f]
link long1 to ProcessData--><g id="link_long1_ProcessData"><path d="M198.4275,326.0983 C198.4275,337.6125 198.4275,350.9904 198.4275,361.9916 " fill="none" id="long1-to-ProcessData" style="stroke:#D9D3D0;stroke-width:0.7545347538707633;"/><polygon fill="#D9D3D0" points="198.4275,365.9302,201.4457,359.1394,198.4275,362.1576,195.4094,359.1394,198.4275,365.9302" style="stroke:#D9D3D0;stroke-width:0.7545347538707633;"/><text fill="#D9D3D0" font-family="Verdana" font-size="9.809" lengthAdjust="spacing" textLength="63.3809" x="199.1821" y="350.1679">Enough Data</text></g><!--MD5=[60533a5dc91355c93bf187ba4549d745]
link *start to State1--><g id="link_*start_State1"><path d="M321.5525,27.9178 C329.0979,27.9178 336.6357,27.9178 344.181,27.9178 " fill="none" id="*start-to-State1" style="stroke:#D9D3D0;stroke-width:0.7545347538707633;"/><polygon fill="#D9D3D0" points="348.1272,27.9178,341.3364,24.8996,344.3546,27.9178,341.3364,30.9359,348.1272,27.9178" style="stroke:#D9D3D0;stroke-width:0.7545347538707633;"/></g><!--MD5=[dc702cd49c4e27e6abb2620dc4bb28d8]
link State1 to State2--><g id="link_State1_State2"><path d="M348.0669,45.755 C323.801,62.0605 287.274,86.6055 261.9443,103.6278 " fill="none" id="State1-to-State2" style="stroke:#D9D3D0;stroke-width:0.7545347538707633;"/><polygon fill="#D9D3D0" points="258.6017,105.8763,265.9211,104.5916,261.7324,103.7712,262.5529,99.5825,258.6017,105.8763" style="stroke:#D9D3D0;stroke-width:0.7545347538707633;"/><text fill="#D9D3D0" font-family="Verdana" font-size="9.809" lengthAdjust="spacing" textLength="53.572" x="312.3623" y="80.0334">Succeeded</text></g><!--MD5=[ca1046a354e184ac9d197a073cc82934]
link State1 to *end--><g id="link_State1_*end"><path d="M383.1678,46.9321 C412.7758,105.5141 495.4728,291.854 417.2426,411.2214 C379.2216,469.2376 283.2297,475.7342 249.9698,476.1944 " fill="none" id="State1-to-*end" style="stroke:#D9D3D0;stroke-width:0.7545347538707633;"/><polygon fill="#D9D3D0" points="246.0613,476.2246,252.8778,479.1844,249.8339,476.1923,252.826,473.1484,246.0613,476.2246" style="stroke:#D9D3D0;stroke-width:0.7545347538707633;"/><text fill="#D9D3D0" font-family="Verdana" font-size="9.809" lengthAdjust="spacing" textLength="39.2358" x="433.8424" y="175.8593">Aborted</text></g><!--MD5=[428d136baf6462f9e03ffacdcb621855]
link State2 to State3--><g id="link_State2_State3"><path d="M233.1361,142.8183 C233.1361,156.2943 233.1361,175.8292 233.1361,196.7148 " fill="none" id="State2-to-State3" style="stroke:#D9D3D0;stroke-width:0.7545347538707633;"/><polygon fill="#D9D3D0" points="233.1361,200.6308,236.1543,193.84,233.1361,196.8581,230.118,193.84,233.1361,200.6308" style="stroke:#D9D3D0;stroke-width:0.7545347538707633;"/><text fill="#D9D3D0" font-family="Verdana" font-size="9.809" lengthAdjust="spacing" textLength="53.572" x="233.8907" y="175.8593">Succeeded</text></g><!--MD5=[37ebb224bae70bf8df0e6bab9d19d55b]
link State2 to *end--><g id="link_State2_*end"><path d="M207.6404,127.1995 C168.1405,132.9113 93.2907,150.1675 60.3477,200.7062 C9.2506,279.0873 8.2999,333.4666 60.3477,411.2214 C98.7837,468.6491 193.9984,475.5229 226.9641,476.1416 " fill="none" id="State2-to-*end" style="stroke:#D9D3D0;stroke-width:0.7545347538707633;"/><polygon fill="#D9D3D0" points="230.8424,476.1869,224.0954,473.0721,227.0701,476.133,224.0091,479.1077,230.8424,476.1869" style="stroke:#D9D3D0;stroke-width:0.7545347538707633;"/><text fill="#D9D3D0" font-family="Verdana" font-size="9.809" lengthAdjust="spacing" textLength="39.2358" x="61.1022" y="310.1665">Aborted</text></g><!--MD5=[8ec7ebc35d95dc19dc51ed7d52bc84fe]
link State3 to State3--><g id="link_State3_State3"><path d="M351.6509,283.69 C367.4811,287.4551 378.0068,294.8797 378.0068,305.9638 C378.0068,316.0972 369.2165,323.1672 355.6122,327.1889 " fill="none" id="State3-to-State3" style="stroke:#D9D3D0;stroke-width:0.7545347538707633;"/><polygon fill="#D9D3D0" points="351.6509,328.2377,358.9897,329.4069,355.2966,327.267,357.4365,323.5739,351.6509,328.2377" style="stroke:#D9D3D0;stroke-width:0.7545347538707633;"/><text fill="#D9D3D0" font-family="Verdana" font-size="9.809" lengthAdjust="spacing" textLength="29.4269" x="382.534" y="310.1665">Failed</text></g><!--MD5=[0ea1e5ee684c4e9667d1229adf70964c]
link State3 to *end--><g id="link_State3_*end"><path d="M149.6997,411.5233 C147.9039,423.6335 149.9261,435.6005 157.6827,446.6846 C173.5053,469.298 208.6289,474.5948 226.8886,475.7945 " fill="none" id="State3-to-*end" style="stroke:#D9D3D0;stroke-width:0.7545347538707633;"/><polygon fill="#D9D3D0" points="230.7216,475.9982,224.0953,472.6343,226.954,475.8039,223.7844,478.6626,230.7216,475.9982" style="stroke:#D9D3D0;stroke-width:0.7545347538707633;"/><text fill="#D9D3D0" font-family="Verdana" font-size="9.809" lengthAdjust="spacing" textLength="125.2528" x="158.4372" y="444.4737">Succeeded / Save Result</text></g><!--MD5=[0ea1e5ee684c4e9667d1229adf70964c]
link State3 to *end--><g id="link_State3_*end"><path d="M281.698,411.4629 C283.9767,418.9403 285.946,426.448 287.4627,433.8575 C288.602,439.441 290.2695,441.7273 287.4627,446.6846 C279.374,460.9679 261.2803,469.0792 249.4794,473.0254 " fill="none" id="State3-to-*end-1" style="stroke:#D9D3D0;stroke-width:0.7545347538707633;"/><polygon fill="#D9D3D0" points="245.7369,474.21,253.1225,475.0325,249.3328,473.0688,251.2966,469.2791,245.7369,474.21" style="stroke:#D9D3D0;stroke-width:0.7545347538707633;"/><text fill="#D9D3D0" font-family="Verdana" font-size="9.809" lengthAdjust="spacing" textLength="39.2358" x="289.7263" y="444.4737">Aborted</text></g></g></svg>