<?xml version="1.0" encoding="UTF-8" standalone="no"?><svg xmlns="http://www.w3.org/2000/svg" xmlns:xlink="http://www.w3.org/1999/xlink" contentStyleType="text/css" height="509px" preserveAspectRatio="none" style="width:550px;height:509px;background:#FFFFFF;" version="1.1" viewBox="0 0 550 509" width="550px" zoomAndPan="magnify"><defs/><g><rect fill="#F1F1F1" height="143.418" rx="5" ry="5" style="stroke:#F1F1F1;stroke-width:1.5;" width="237" x="10" y="18"/><text fill="#000000" font-family="sans-serif" font-size="14" font-weight="bold" lengthAdjust="spacing" textLength="28" x="15" y="33.5352">null</text><text fill="#000000" font-family="sans-serif" font-size="14" lengthAdjust="spacing" textLength="14" x="126" y="33.5352">␀</text><line style="stroke:#000000;stroke-width:1.0;" x1="121" x2="121" y1="18" y2="38.4883"/><line style="stroke:#000000;stroke-width:1.0;" x1="10" x2="247" y1="38.4883" y2="38.4883"/><text fill="#000000" font-family="sans-serif" font-size="14" font-weight="bold" lengthAdjust="spacing" textLength="29" x="15" y="54.0234">true</text><text fill="#000000" font-family="sans-serif" font-size="14" lengthAdjust="spacing" textLength="44" x="126" y="54.0234">☑ true</text><line style="stroke:#000000;stroke-width:1.0;" x1="121" x2="121" y1="38.4883" y2="58.9766"/><line style="stroke:#000000;stroke-width:1.0;" x1="10" x2="247" y1="58.9766" y2="58.9766"/><text fill="#000000" font-family="sans-serif" font-size="14" font-weight="bold" lengthAdjust="spacing" textLength="35" x="15" y="74.5117">false</text><text fill="#000000" font-family="sans-serif" font-size="14" lengthAdjust="spacing" textLength="48" x="126" y="74.5117">☐ false</text><line style="stroke:#000000;stroke-width:1.0;" x1="121" x2="121" y1="58.9766" y2="79.4648"/><line style="stroke:#000000;stroke-width:1.0;" x1="10" x2="247" y1="79.4648" y2="79.4648"/><text fill="#000000" font-family="sans-serif" font-size="14" font-weight="bold" lengthAdjust="spacing" textLength="101" x="15" y="95">JSON_Number</text><text fill="#000000" font-family="sans-serif" font-size="14" lengthAdjust="spacing" textLength="12" x="126" y="95">   </text><line style="stroke:#000000;stroke-width:1.0;" x1="121" x2="121" y1="79.4648" y2="99.9531"/><line style="stroke:#000000;stroke-width:1.0;" x1="10" x2="247" y1="99.9531" y2="99.9531"/><text fill="#000000" font-family="sans-serif" font-size="14" font-weight="bold" lengthAdjust="spacing" textLength="87" x="15" y="115.4883">JSON_String</text><text fill="#000000" font-family="sans-serif" font-size="14" lengthAdjust="spacing" textLength="32" x="126" y="115.4883">a
b&#13;c</text><text fill="#000000" font-family="sans-serif" font-size="14" lengthAdjust="spacing" textLength="9" x="190" y="115.4883">d</text><text fill="#008000" font-family="sans-serif" font-size="14" lengthAdjust="spacing" textLength="39" x="203" y="115.4883">TBC...</text><line style="stroke:#000000;stroke-width:1.0;" x1="121" x2="121" y1="99.9531" y2="120.4414"/><line style="stroke:#000000;stroke-width:1.0;" x1="10" x2="247" y1="120.4414" y2="120.4414"/><text fill="#000000" font-family="sans-serif" font-size="14" font-weight="bold" lengthAdjust="spacing" textLength="91" x="15" y="135.9766">JSON_Object</text><text fill="#000000" font-family="sans-serif" font-size="14" lengthAdjust="spacing" textLength="12" x="126" y="135.9766">   </text><line style="stroke:#000000;stroke-width:1.0;" x1="121" x2="121" y1="120.4414" y2="140.9297"/><line style="stroke:#000000;stroke-width:1.0;" x1="10" x2="247" y1="140.9297" y2="140.9297"/><text fill="#000000" font-family="sans-serif" font-size="14" font-weight="bold" lengthAdjust="spacing" textLength="82" x="15" y="156.4648">JSON_Array</text><text fill="#000000" font-family="sans-serif" font-size="14" lengthAdjust="spacing" textLength="12" x="126" y="156.4648">   </text><line style="stroke:#000000;stroke-width:1.0;" x1="121" x2="121" y1="140.9297" y2="161.418"/><rect fill="none" height="143.418" rx="5" ry="5" style="stroke:#000000;stroke-width:1.5;" width="237" x="10" y="18"/><rect fill="#F1F1F1" height="61.4648" rx="5" ry="5" style="stroke:#F1F1F1;stroke-width:1.5;" width="40" x="307" y="10"/><text fill="#000000" font-family="sans-serif" font-size="14" lengthAdjust="spacing" textLength="17" x="312" y="25.5352">-1</text><line style="stroke:#000000;stroke-width:1.0;" x1="307" x2="347" y1="30.4883" y2="30.4883"/><text fill="#000000" font-family="sans-serif" font-size="14" lengthAdjust="spacing" textLength="30" x="312" y="46.0234">-1.1</text><line style="stroke:#000000;stroke-width:1.0;" x1="307" x2="347" y1="50.9766" y2="50.9766"/><text fill="#008000" font-family="sans-serif" font-size="14" lengthAdjust="spacing" textLength="27" x="312" y="66.5117">TBC</text><rect fill="none" height="61.4648" rx="5" ry="5" style="stroke:#000000;stroke-width:1.5;" width="40" x="307" y="10"/><rect fill="#F1F1F1" height="81.9531" rx="5" ry="5" style="stroke:#F1F1F1;stroke-width:1.5;" width="86" x="284" y="89.5"/><text fill="#000000" font-family="sans-serif" font-size="14" font-weight="bold" lengthAdjust="spacing" textLength="10" x="289" y="105.0352">{}</text><text fill="#000000" font-family="sans-serif" font-size="14" lengthAdjust="spacing" textLength="12" x="338" y="105.0352">   </text><line style="stroke:#000000;stroke-width:1.0;" x1="333" x2="333" y1="89.5" y2="109.9883"/><line style="stroke:#000000;stroke-width:1.0;" x1="284" x2="370" y1="109.9883" y2="109.9883"/><text fill="#000000" font-family="sans-serif" font-size="14" font-weight="bold" lengthAdjust="spacing" textLength="36" x="289" y="125.5234">k_int</text><text fill="#000000" font-family="sans-serif" font-size="14" lengthAdjust="spacing" textLength="27" x="338" y="125.5234">123</text><line style="stroke:#000000;stroke-width:1.0;" x1="333" x2="333" y1="109.9883" y2="130.4766"/><line style="stroke:#000000;stroke-width:1.0;" x1="284" x2="370" y1="130.4766" y2="130.4766"/><text fill="#000000" font-family="sans-serif" font-size="14" font-weight="bold" lengthAdjust="spacing" textLength="36" x="289" y="146.0117">k_str</text><text fill="#000000" font-family="sans-serif" font-size="14" lengthAdjust="spacing" textLength="24" x="338" y="146.0117">abc</text><line style="stroke:#000000;stroke-width:1.0;" x1="333" x2="333" y1="130.4766" y2="150.9648"/><line style="stroke:#000000;stroke-width:1.0;" x1="284" x2="370" y1="150.9648" y2="150.9648"/><text fill="#000000" font-family="sans-serif" font-size="14" font-weight="bold" lengthAdjust="spacing" textLength="39" x="289" y="166.5">k_obj</text><text fill="#000000" font-family="sans-serif" font-size="14" lengthAdjust="spacing" textLength="12" x="338" y="166.5">   </text><line style="stroke:#000000;stroke-width:1.0;" x1="333" x2="333" y1="150.9648" y2="171.4531"/><rect fill="none" height="81.9531" rx="5" ry="5" style="stroke:#000000;stroke-width:1.5;" width="86" x="284" y="89.5"/><rect fill="#F1F1F1" height="15" rx="5" ry="5" style="stroke:#F1F1F1;stroke-width:1.5;" width="30" x="424" y="91.5"/><rect fill="none" height="15" rx="5" ry="5" style="stroke:#000000;stroke-width:1.5;" width="30" x="424" y="91.5"/><rect fill="#F1F1F1" height="20.4883" rx="5" ry="5" style="stroke:#F1F1F1;stroke-width:1.5;" width="36" x="418" y="125.5"/><text fill="#000000" font-family="sans-serif" font-size="14" font-weight="bold" lengthAdjust="spacing" textLength="9" x="423" y="141.0352">k</text><text fill="#000000" font-family="sans-serif" font-size="14" lengthAdjust="spacing" textLength="7" x="442" y="141.0352">v</text><line style="stroke:#000000;stroke-width:1.0;" x1="437" x2="437" y1="125.5" y2="145.9883"/><rect fill="none" height="20.4883" rx="5" ry="5" style="stroke:#000000;stroke-width:1.5;" width="36" x="418" y="125.5"/><rect fill="#F1F1F1" height="102.4414" rx="5" ry="5" style="stroke:#F1F1F1;stroke-width:1.5;" width="22" x="315" y="208.5"/><text fill="#000000" font-family="sans-serif" font-size="14" lengthAdjust="spacing" textLength="12" x="320" y="224.0352">   </text><line style="stroke:#000000;stroke-width:1.0;" x1="315" x2="337" y1="228.9883" y2="228.9883"/><text fill="#000000" font-family="sans-serif" font-size="14" lengthAdjust="spacing" textLength="12" x="320" y="244.5234">   </text><line style="stroke:#000000;stroke-width:1.0;" x1="315" x2="337" y1="249.4766" y2="249.4766"/><text fill="#000000" font-family="sans-serif" font-size="14" lengthAdjust="spacing" textLength="12" x="320" y="265.0117">   </text><line style="stroke:#000000;stroke-width:1.0;" x1="315" x2="337" y1="269.9648" y2="269.9648"/><text fill="#000000" font-family="sans-serif" font-size="14" lengthAdjust="spacing" textLength="12" x="320" y="285.5">   </text><line style="stroke:#000000;stroke-width:1.0;" x1="315" x2="337" y1="290.4531" y2="290.4531"/><text fill="#000000" font-family="sans-serif" font-size="14" lengthAdjust="spacing" textLength="12" x="320" y="305.9883">   </text><rect fill="none" height="102.4414" rx="5" ry="5" style="stroke:#000000;stroke-width:1.5;" width="22" x="315" y="208.5"/><rect fill="#F1F1F1" height="15" rx="5" ry="5" style="stroke:#F1F1F1;stroke-width:1.5;" width="30" x="424" y="163.5"/><rect fill="none" height="15" rx="5" ry="5" style="stroke:#000000;stroke-width:1.5;" width="30" x="424" y="163.5"/><rect fill="#F1F1F1" height="40.9766" rx="5" ry="5" style="stroke:#F1F1F1;stroke-width:1.5;" width="58" x="407" y="198"/><text fill="#000000" font-family="sans-serif" font-size="14" lengthAdjust="spacing" textLength="44" x="412" y="213.5352">☑ true</text><line style="stroke:#000000;stroke-width:1.0;" x1="407" x2="465" y1="218.4883" y2="218.4883"/><text fill="#000000" font-family="sans-serif" font-size="14" lengthAdjust="spacing" textLength="48" x="412" y="234.0234">☐ false</text><rect fill="none" height="40.9766" rx="5" ry="5" style="stroke:#000000;stroke-width:1.5;" width="58" x="407" y="198"/><rect fill="#F1F1F1" height="40.9766" rx="5" ry="5" style="stroke:#F1F1F1;stroke-width:1.5;" width="27" x="422.5" y="257"/><text fill="#000000" font-family="sans-serif" font-size="14" lengthAdjust="spacing" textLength="17" x="427.5" y="272.5352">-1</text><line style="stroke:#000000;stroke-width:1.0;" x1="422.5" x2="449.5" y1="277.4883" y2="277.4883"/><text fill="#000000" font-family="sans-serif" font-size="14" lengthAdjust="spacing" textLength="9" x="427.5" y="293.0234">1</text><rect fill="none" height="40.9766" rx="5" ry="5" style="stroke:#000000;stroke-width:1.5;" width="27" x="422.5" y="257"/><rect fill="#F1F1F1" height="61.4648" rx="5" ry="5" style="stroke:#F1F1F1;stroke-width:1.5;" width="19" x="424" y="316"/><text fill="#000000" font-family="sans-serif" font-size="14" lengthAdjust="spacing" textLength="8" x="429" y="331.5352">a</text><line style="stroke:#000000;stroke-width:1.0;" x1="424" x2="443" y1="336.4883" y2="336.4883"/><text fill="#000000" font-family="sans-serif" font-size="14" lengthAdjust="spacing" textLength="9" x="429" y="352.0234">b</text><line style="stroke:#000000;stroke-width:1.0;" x1="424" x2="443" y1="356.9766" y2="356.9766"/><text fill="#000000" font-family="sans-serif" font-size="14" lengthAdjust="spacing" textLength="7" x="429" y="372.5117">c</text><rect fill="none" height="61.4648" rx="5" ry="5" style="stroke:#000000;stroke-width:1.5;" width="19" x="424" y="316"/><rect fill="#F1F1F1" height="102.4414" rx="5" ry="5" style="stroke:#F1F1F1;stroke-width:1.5;" width="54" x="409" y="395.5"/><text fill="#000000" font-family="sans-serif" font-size="14" lengthAdjust="spacing" textLength="26" x="414" y="411.0352">mix</text><line style="stroke:#000000;stroke-width:1.0;" x1="409" x2="463" y1="415.9883" y2="415.9883"/><text fill="#000000" font-family="sans-serif" font-size="14" lengthAdjust="spacing" textLength="14" x="414" y="431.5234">␀</text><line style="stroke:#000000;stroke-width:1.0;" x1="409" x2="463" y1="436.4766" y2="436.4766"/><text fill="#000000" font-family="sans-serif" font-size="14" lengthAdjust="spacing" textLength="44" x="414" y="452.0117">☑ true</text><line style="stroke:#000000;stroke-width:1.0;" x1="409" x2="463" y1="456.9648" y2="456.9648"/><text fill="#000000" font-family="sans-serif" font-size="14" lengthAdjust="spacing" textLength="9" x="414" y="472.5">1</text><line style="stroke:#000000;stroke-width:1.0;" x1="409" x2="463" y1="477.4531" y2="477.4531"/><text fill="#000000" font-family="sans-serif" font-size="14" lengthAdjust="spacing" textLength="12" x="414" y="492.9883">   </text><rect fill="none" height="102.4414" rx="5" ry="5" style="stroke:#000000;stroke-width:1.5;" width="54" x="409" y="395.5"/><rect fill="#F1F1F1" height="20.4883" rx="5" ry="5" style="stroke:#F1F1F1;stroke-width:1.5;" width="36" x="502" y="477.5"/><text fill="#000000" font-family="sans-serif" font-size="14" font-weight="bold" lengthAdjust="spacing" textLength="9" x="507" y="493.0352">k</text><text fill="#000000" font-family="sans-serif" font-size="14" lengthAdjust="spacing" textLength="7" x="526" y="493.0352">v</text><line style="stroke:#000000;stroke-width:1.0;" x1="521" x2="521" y1="477.5" y2="497.9883"/><rect fill="none" height="20.4883" rx="5" ry="5" style="stroke:#000000;stroke-width:1.5;" width="36" x="502" y="477.5"/><path d="M235,88.5 L248,88.5 C267.9879,88.5 287.1902,77.033 301.5997,65.3085 " fill="none" style="stroke:#000000;stroke-width:1.0;stroke-dasharray:3.0,3.0;"/><path d="M303.6029,67.6566 L303.3609,63.8061 L299.5966,62.9603 L307.4702,60.3006 L303.6029,67.6566 " fill="#000000" style="stroke:#000000;stroke-width:1.0;"/><ellipse cx="235" cy="88.5" fill="#000000" rx="3" ry="3" style="stroke:#000000;stroke-width:1.0;"/><path d="M358,99.5 L371,99.5 C386.2484,99.5 403.5246,99.5 416.3569,99.5 " fill="none" style="stroke:#000000;stroke-width:1.0;stroke-dasharray:3.0,3.0;"/><path d="M416.3569,102.59 L418.6744,99.5 L416.3569,96.41 L424.0818,99.5 L416.3569,102.59 " fill="#000000" style="stroke:#000000;stroke-width:1.0;"/><ellipse cx="358" cy="99.5" fill="#000000" rx="3" ry="3" style="stroke:#000000;stroke-width:1.0;"/><path d="M358,161.5 L371,161.5 C385.8362,161.5 401.2908,155.5093 413.3517,149.2792 " fill="none" style="stroke:#000000;stroke-width:1.0;stroke-dasharray:3.0,3.0;"/><path d="M414.8127,151.9507 L415.3554,148.1834 L411.8907,146.6076 L420.0305,145.6267 L414.8127,151.9507 " fill="#000000" style="stroke:#000000;stroke-width:1.0;"/><ellipse cx="358" cy="161.5" fill="#000000" rx="3" ry="3" style="stroke:#000000;stroke-width:1.0;"/><path d="M235,130.5 L248,130.5 C257.2482,130.5 267.1093,130.5 276.6085,130.5 " fill="none" style="stroke:#000000;stroke-width:1.0;stroke-dasharray:3.0,3.0;"/><path d="M276.6085,133.5088 L278.865,130.5 L276.6085,127.4912 L284.1304,130.5 L276.6085,133.5088 " fill="#000000" style="stroke:#000000;stroke-width:1.0;"/><ellipse cx="235" cy="130.5" fill="#000000" rx="3" ry="3" style="stroke:#000000;stroke-width:1.0;"/><path d="M327.5,218.5 L340.5,218.5 C348.7902,218.5 392.4853,195.2094 417.6307,181.419 " fill="none" style="stroke:#000000;stroke-width:1.0;stroke-dasharray:3.0,3.0;"/><path d="M419.1406,184.16 L419.6864,180.2866 L416.1209,178.6781 L424.4831,177.6444 L419.1406,184.16 " fill="#000000" style="stroke:#000000;stroke-width:1.0;"/><ellipse cx="327.5" cy="218.5" fill="#000000" rx="3" ry="3" style="stroke:#000000;stroke-width:1.0;"/><path d="M327.5,238.5 L340.5,238.5 C360.4095,238.5 382.1723,234.2417 399.839,229.6549 " fill="none" style="stroke:#000000;stroke-width:1.0;stroke-dasharray:3.0,3.0;"/><path d="M400.6288,232.5763 L402.0301,229.0626 L399.0493,226.7336 L407.1424,227.6805 L400.6288,232.5763 " fill="#000000" style="stroke:#000000;stroke-width:1.0;"/><ellipse cx="327.5" cy="238.5" fill="#000000" rx="3" ry="3" style="stroke:#000000;stroke-width:1.0;"/><path d="M327.5,258.5 L340.5,258.5 C366.8136,258.5 396.4447,265.5958 415.5115,271.1146 " fill="none" style="stroke:#000000;stroke-width:1.0;stroke-dasharray:3.0,3.0;"/><path d="M414.6441,274.0118 L417.6844,271.7652 L416.379,268.2174 L422.7545,273.2833 L414.6441,274.0118 " fill="#000000" style="stroke:#000000;stroke-width:1.0;"/><ellipse cx="327.5" cy="258.5" fill="#000000" rx="3" ry="3" style="stroke:#000000;stroke-width:1.0;"/><path d="M327.5,279.5 L340.5,279.5 C373.0565,279.5 402.3042,306.103 419.4862,325.7825 " fill="none" style="stroke:#000000;stroke-width:1.0;stroke-dasharray:3.0,3.0;"/><path d="M417.147,327.7566 L420.9668,327.5369 L421.8254,323.8084 L424.4215,331.6305 L417.147,327.7566 " fill="#000000" style="stroke:#000000;stroke-width:1.0;"/><ellipse cx="327.5" cy="279.5" fill="#000000" rx="3" ry="3" style="stroke:#000000;stroke-width:1.0;"/><path d="M451.5,487.5 L464.5,487.5 C474.347,487.5 485.1857,487.5 494.6192,487.5 " fill="none" style="stroke:#000000;stroke-width:1.0;stroke-dasharray:3.0,3.0;"/><path d="M494.6192,490.5164 L496.8815,487.5 L494.6192,484.4836 L502.1602,487.5 L494.6192,490.5164 " fill="#000000" style="stroke:#000000;stroke-width:1.0;"/><ellipse cx="451.5" cy="487.5" fill="#000000" rx="3" ry="3" style="stroke:#000000;stroke-width:1.0;"/><path d="M327.5,298.5 L327.5,311.5 C327.5,360.4614 371.3515,401.8401 403.1696,425.4197 " fill="none" style="stroke:#000000;stroke-width:1.0;stroke-dasharray:3.0,3.0;"/><path d="M401.3794,427.8944 L405.0256,426.7624 L404.9598,422.9451 L409.3562,429.8953 L401.3794,427.8944 " fill="#000000" style="stroke:#000000;stroke-width:1.0;"/><ellipse cx="327.5" cy="298.5" fill="#000000" rx="3" ry="3" style="stroke:#000000;stroke-width:1.0;"/><path d="M235,150.5 L248,150.5 C267.5126,150.5 295.0585,197.0764 311.7973,229.3364 " fill="none" style="stroke:#000000;stroke-width:1.0;stroke-dasharray:3.0,3.0;"/><path d="M308.9783,230.7781 L312.8786,231.4507 L314.6163,227.8947 L315.4016,236.3839 L308.9783,230.7781 " fill="#000000" style="stroke:#000000;stroke-width:1.0;"/><ellipse cx="235" cy="150.5" fill="#000000" rx="3" ry="3" style="stroke:#000000;stroke-width:1.0;"/></g></svg>