<?xml version="1.0" encoding="UTF-8" standalone="no"?>
<!DOCTYPE svg PUBLIC "-//W3C//DTD SVG 1.1//EN"
 "http://www.w3.org/Graphics/SVG/1.1/DTD/svg11.dtd">
<!-- Generated by graphviz version 3.0.0 (20220226.1711)
 -->
<!-- Title: Transparency Pages: 1 -->
<svg width="441pt" height="462pt"
 viewBox="0.00 0.00 441.00 462.00" xmlns="http://www.w3.org/2000/svg" xmlns:xlink="http://www.w3.org/1999/xlink">
<g id="graph0" class="graph" transform="scale(1 1) rotate(0) translate(4 458)">
<title>Transparency</title>
<polygon fill="#0000ff" fill-opacity="0.066667" stroke="transparent" points="-4,4 -4,-458 437,-458 437,4 -4,4"/>
<!-- 5 -->
<g id="node1" class="node">
<title>5</title>
<ellipse fill="#0000ff" fill-opacity="0.501961" stroke="#0000ff" stroke-opacity="0.501961" cx="146.19" cy="-144.56" rx="80" ry="80"/>
</g>
<!-- 1 -->
<g id="node3" class="node">
<title>1</title>
<ellipse fill="#ff0000" fill-opacity="0.501961" stroke="#ff0000" stroke-opacity="0.501961" cx="80" cy="-172.67" rx="80" ry="80"/>
</g>
<!-- 5&#45;&#45;1 -->
<g id="edge3" class="edge">
<title>5&#45;&#45;1</title>
<path fill="none" stroke="black" d="M80.05,-172.65C80.03,-172.66 80.02,-172.66 80.01,-172.67"/>
</g>
<!-- 6 -->
<g id="node2" class="node">
<title>6</title>
<ellipse fill="#ee00ee" fill-opacity="0.501961" stroke="#ee00ee" stroke-opacity="0.501961" cx="332" cy="-353" rx="80" ry="80"/>
</g>
<!-- 2 -->
<g id="node4" class="node">
<title>2</title>
<ellipse fill="#eeee00" fill-opacity="0.501961" stroke="#eeee00" stroke-opacity="0.501961" cx="89.06" cy="-101" rx="80" ry="80"/>
</g>
<!-- 1&#45;&#45;2 -->
<g id="edge1" class="edge">
<title>1&#45;&#45;2</title>
<path fill="none" stroke="black" d="M89.06,-101.05C89.06,-101.03 89.06,-101.02 89.06,-101.01"/>
</g>
<!-- 2&#45;&#45;5 -->
<g id="edge2" class="edge">
<title>2&#45;&#45;5</title>
<path fill="none" stroke="black" d="M146.03,-144.44C146.08,-144.48 146.12,-144.51 146.15,-144.53"/>
</g>
<!-- 3 -->
<g id="node5" class="node">
<title>3</title>
<ellipse fill="#00ff00" fill-opacity="0.501961" stroke="#00ff00" stroke-opacity="0.501961" cx="353" cy="-80" rx="80" ry="80"/>
</g>
<!-- 4 -->
<g id="node6" class="node">
<title>4</title>
<ellipse fill="#00eeee" fill-opacity="0.501961" stroke="#00eeee" stroke-opacity="0.501961" cx="122" cy="-374" rx="80" ry="80"/>
</g>
</g>
</svg>
