<?xml version="1.0" encoding="UTF-8" standalone="no"?><svg xmlns="http://www.w3.org/2000/svg" xmlns:xlink="http://www.w3.org/1999/xlink" contentStyleType="text/css" height="615px" preserveAspectRatio="none" style="width:994px;height:615px;background:#FFFFFF;" version="1.1" viewBox="0 0 994 615" width="994px" zoomAndPan="magnify"><defs/><g><!--MD5=[fc729ae40511b638ec1ee6febf041dd5]
cluster b--><g id="cluster_b"><rect height="407" rx="2.5" ry="2.5" style="stroke:#444444;stroke-width:1.0;fill:none;stroke-dasharray:7.0,7.0;" width="250" x="388" y="7"/><text fill="#444444" font-family="sans-serif" font-size="16" font-weight="bold" lengthAdjust="spacing" textLength="126" x="450" y="24.4688">API Application</text><text fill="#444444" font-family="sans-serif" font-size="12" font-weight="bold" lengthAdjust="spacing" textLength="69" x="478.5" y="39.4453">[Container]</text></g><!--MD5=[6186517b0f979c270c1f201d839d1352]
entity c3--><g id="elem_c3"><rect fill="#85BBF0" height="118.9297" rx="2.5" ry="2.5" style="stroke:#78A8D8;stroke-width:0.5;" width="193" x="404.5" y="279"/><text fill="#000000" font-family="sans-serif" font-size="16" font-weight="bold" lengthAdjust="spacing" textLength="165" x="418.5" y="304.4688">Security Component</text><text fill="#000000" font-family="sans-serif" font-size="12" font-style="italic" lengthAdjust="spacing" textLength="76" x="463" y="319.4453">[Spring Bean]</text><text fill="#000000" font-family="sans-serif" font-size="14" lengthAdjust="spacing" textLength="4" x="499" y="335.5117"> </text><text fill="#000000" font-family="sans-serif" font-size="14" lengthAdjust="spacing" textLength="147" x="425.5" y="352">Provides functionality</text><text fill="#000000" font-family="sans-serif" font-size="14" lengthAdjust="spacing" textLength="145" x="426.5" y="368.4883">Related to signing in,</text><text fill="#000000" font-family="sans-serif" font-size="14" lengthAdjust="spacing" textLength="173" x="414.5" y="384.9766">changing passwords, etc.</text></g><!--MD5=[3d2111c8a0a2d14b8769ddc11704380e]
entity c2--><g id="elem_c2"><rect fill="#85BBF0" height="102.4414" rx="2.5" ry="2.5" style="stroke:#78A8D8;stroke-width:0.5;" width="218" x="404" y="58"/><text fill="#000000" font-family="sans-serif" font-size="16" font-weight="bold" lengthAdjust="spacing" textLength="143" x="441.5" y="83.4688">Sign In Controller</text><text fill="#000000" font-family="sans-serif" font-size="12" font-style="italic" lengthAdjust="spacing" textLength="163" x="431.5" y="98.4453">[Spring MVC Rest Controller]</text><text fill="#000000" font-family="sans-serif" font-size="14" lengthAdjust="spacing" textLength="4" x="511" y="114.5117"> </text><text fill="#000000" font-family="sans-serif" font-size="14" lengthAdjust="spacing" textLength="198" x="414" y="131">Allows users to sign in to the</text><text fill="#000000" font-family="sans-serif" font-size="14" lengthAdjust="spacing" textLength="169" x="428.5" y="147.4883">Internet Banking System.</text></g><!--MD5=[68180f917081af7ea13a4188db3c6e18]
entity c4--><g id="elem_c4"><path d="M771,276.5 C771,266.5 874,266.5 874,266.5 C874,266.5 977,266.5 977,276.5 L977,400.918 C977,410.918 874,410.918 874,410.918 C874,410.918 771,410.918 771,400.918 L771,276.5 " fill="#438DD5" style="stroke:#3C7FC0;stroke-width:0.5;"/><path d="M771,276.5 C771,286.5 874,286.5 874,286.5 C874,286.5 977,286.5 977,276.5 " fill="none" style="stroke:#3C7FC0;stroke-width:0.5;"/><text fill="#FFFFFF" font-family="sans-serif" font-size="16" font-weight="bold" lengthAdjust="spacing" textLength="75" x="836.5" y="305.9688">Database</text><text fill="#FFFFFF" font-family="sans-serif" font-size="12" font-style="italic" lengthAdjust="spacing" textLength="171" x="788.5" y="320.9453">[Relational Database Schema]</text><text fill="#FFFFFF" font-family="sans-serif" font-size="14" lengthAdjust="spacing" textLength="4" x="872" y="337.0117"> </text><text fill="#FFFFFF" font-family="sans-serif" font-size="14" lengthAdjust="spacing" textLength="161" x="791.5" y="353.5">Stores user registration</text><text fill="#FFFFFF" font-family="sans-serif" font-size="14" lengthAdjust="spacing" textLength="139" x="802.5" y="369.9883">information, hashed</text><text fill="#FFFFFF" font-family="sans-serif" font-size="14" lengthAdjust="spacing" textLength="182" x="781" y="386.4766">authentication credentials,</text><text fill="#FFFFFF" font-family="sans-serif" font-size="14" lengthAdjust="spacing" textLength="109" x="819.5" y="402.9648">access logs, etc.</text></g><!--MD5=[0aac872f208ab6f5f7887aae079fb447]
entity c1--><g id="elem_c1"><rect fill="#438DD5" height="135.418" rx="2.5" ry="2.5" style="stroke:#3C7FC0;stroke-width:0.5;" width="218" x="7" y="41.5"/><text fill="#FFFFFF" font-family="sans-serif" font-size="16" font-weight="bold" lengthAdjust="spacing" textLength="198" x="17" y="66.9688">Single-Page Application</text><text fill="#FFFFFF" font-family="sans-serif" font-size="12" font-style="italic" lengthAdjust="spacing" textLength="138" x="47" y="81.9453">[JavaScript and Angular]</text><text fill="#FFFFFF" font-family="sans-serif" font-size="14" lengthAdjust="spacing" textLength="4" x="114" y="98.0117"> </text><text fill="#FFFFFF" font-family="sans-serif" font-size="14" lengthAdjust="spacing" textLength="180" x="24" y="114.5">Provides all of the Internet</text><text fill="#FFFFFF" font-family="sans-serif" font-size="14" lengthAdjust="spacing" textLength="163" x="32.5" y="130.9883">banking functionality to</text><text fill="#FFFFFF" font-family="sans-serif" font-size="14" lengthAdjust="spacing" textLength="162" x="33" y="147.4766">customers via their web</text><text fill="#FFFFFF" font-family="sans-serif" font-size="14" lengthAdjust="spacing" textLength="60" x="86" y="163.9648">browser.</text></g><!--MD5=[ff417a5728fced563c9835ded02c1656]
link c1 to c2--><g id="link_c1_c2"><path d="M225.01,109 C277.95,109 341.65,109 395.65,109 " fill="none" id="c1-to-c2" style="stroke:#666666;stroke-width:1.0;"/><polygon fill="#666666" points="403.89,109,395.89,106,395.89,112,403.89,109" style="stroke:#666666;stroke-width:1.0;"/><text fill="#666666" font-family="sans-serif" font-size="12" font-weight="bold" lengthAdjust="spacing" textLength="138" x="243.5" y="74.6016">1: Submits credentials</text><text fill="#666666" font-family="sans-serif" font-size="12" font-weight="bold" lengthAdjust="spacing" textLength="13" x="308" y="88.7344">to</text><text fill="#666666" font-family="sans-serif" font-size="12" font-style="italic" lengthAdjust="spacing" textLength="80" x="274.5" y="102.8672">[JSON/HTTPS]</text></g><!--MD5=[8e063688995c833a20a474357258d152]
link c2 to c3--><g id="link_c2_c3"><path d="M510.35,160.21 C508.64,192.67 506.39,235.31 504.53,270.63 " fill="none" id="c2-to-c3" style="stroke:#666666;stroke-width:1.0;"/><polygon fill="#666666" points="504.09,278.98,507.5004,271.1462,501.5085,270.8353,504.09,278.98" style="stroke:#666666;stroke-width:1.0;"/><text fill="#666666" font-family="sans-serif" font-size="12" font-weight="bold" lengthAdjust="spacing" textLength="46" x="546" y="219.1016">2: Calls</text><text fill="#666666" font-family="sans-serif" font-size="12" font-weight="bold" lengthAdjust="spacing" textLength="126" x="508" y="233.2344">isAuthenticated() on</text></g><!--MD5=[bd9965ec266b681454641a95a64e412e]
link c3 to c4--><g id="link_c3_c4"><path d="M597.54,338.5 C648.05,338.5 710.13,338.5 762.66,338.5 " fill="none" id="c3-to-c4" style="stroke:#666666;stroke-width:1.0;"/><polygon fill="#666666" points="770.67,338.5,762.67,335.5,762.67,341.5,770.67,338.5" style="stroke:#666666;stroke-width:1.0;"/><text fill="#666666" font-family="sans-serif" font-size="12" font-weight="bold" lengthAdjust="spacing" textLength="133" x="615.75" y="304.1016">3: select * from users</text><text fill="#666666" font-family="sans-serif" font-size="12" font-weight="bold" lengthAdjust="spacing" textLength="126" x="621.25" y="318.2344">where username = ?</text><text fill="#666666" font-family="sans-serif" font-size="12" font-style="italic" lengthAdjust="spacing" textLength="36" x="666.25" y="332.3672">[JDBC]</text></g><rect height="164.3945" rx="7.5" ry="7.5" style="stroke:#00000000;stroke-width:1.0;fill:none;" width="159" x="813" y="434.918"/><text fill="#000000" font-family="sans-serif" font-size="14" font-weight="bold" lengthAdjust="spacing" textLength="51" x="819" y="456.4531">Legend</text><text fill="#FFFFFF" font-family="sans-serif" font-size="14" lengthAdjust="spacing" textLength="4" x="870" y="456.4531"> </text><rect fill="#08427B" height="16.4883" style="stroke:none;stroke-width:1.0;" width="147" x="819" y="459.4063"/><text fill="#FFFFFF" font-family="sans-serif" font-size="14" lengthAdjust="spacing" textLength="48" x="823" y="472.9414">person</text><rect fill="#1168BD" height="16.4883" style="stroke:none;stroke-width:1.0;" width="147" x="819" y="475.8945"/><text fill="#FFFFFF" font-family="sans-serif" font-size="14" lengthAdjust="spacing" textLength="47" x="823" y="489.4297">system</text><rect fill="#438DD5" height="16.4883" style="stroke:none;stroke-width:1.0;" width="147" x="819" y="492.3828"/><text fill="#FFFFFF" font-family="sans-serif" font-size="14" lengthAdjust="spacing" textLength="65" x="823" y="505.918">container</text><rect fill="#85BBF0" height="16.4883" style="stroke:none;stroke-width:1.0;" width="147" x="819" y="508.8711"/><text fill="#FFFFFF" font-family="sans-serif" font-size="14" lengthAdjust="spacing" textLength="78" x="823" y="522.4063">component</text><rect fill="#686868" height="16.4883" style="stroke:none;stroke-width:1.0;" width="147" x="819" y="525.3594"/><text fill="#FFFFFF" font-family="sans-serif" font-size="14" lengthAdjust="spacing" textLength="109" x="823" y="538.8945">external person</text><rect fill="#999999" height="16.4883" style="stroke:none;stroke-width:1.0;" width="147" x="819" y="541.8477"/><text fill="#FFFFFF" font-family="sans-serif" font-size="14" lengthAdjust="spacing" textLength="108" x="823" y="555.3828">external system</text><rect fill="#B3B3B3" height="16.4883" style="stroke:none;stroke-width:1.0;" width="147" x="819" y="558.3359"/><text fill="#FFFFFF" font-family="sans-serif" font-size="14" lengthAdjust="spacing" textLength="126" x="823" y="571.8711">external container</text><rect fill="#CCCCCC" height="16.4883" style="stroke:none;stroke-width:1.0;" width="147" x="819" y="574.8242"/><text fill="#FFFFFF" font-family="sans-serif" font-size="14" lengthAdjust="spacing" textLength="139" x="823" y="588.3594">external component</text><line style="stroke:#FFFFFF;stroke-width:1.0;" x1="819" x2="966" y1="442.918" y2="442.918"/><line style="stroke:#FFFFFF;stroke-width:1.0;" x1="819" x2="966" y1="459.4063" y2="459.4063"/><line style="stroke:#FFFFFF;stroke-width:1.0;" x1="819" x2="966" y1="475.8945" y2="475.8945"/><line style="stroke:#FFFFFF;stroke-width:1.0;" x1="819" x2="966" y1="492.3828" y2="492.3828"/><line style="stroke:#FFFFFF;stroke-width:1.0;" x1="819" x2="966" y1="508.8711" y2="508.8711"/><line style="stroke:#FFFFFF;stroke-width:1.0;" x1="819" x2="966" y1="525.3594" y2="525.3594"/><line style="stroke:#FFFFFF;stroke-width:1.0;" x1="819" x2="966" y1="541.8477" y2="541.8477"/><line style="stroke:#FFFFFF;stroke-width:1.0;" x1="819" x2="966" y1="558.3359" y2="558.3359"/><line style="stroke:#FFFFFF;stroke-width:1.0;" x1="819" x2="966" y1="574.8242" y2="574.8242"/><line style="stroke:#FFFFFF;stroke-width:1.0;" x1="819" x2="966" y1="591.3125" y2="591.3125"/><line style="stroke:#FFFFFF;stroke-width:1.0;" x1="819" x2="819" y1="442.918" y2="591.3125"/><line style="stroke:#FFFFFF;stroke-width:1.0;" x1="966" x2="966" y1="442.918" y2="591.3125"/></g></svg>