<?xml version="1.0" encoding="UTF-8" standalone="no"?><svg xmlns="http://www.w3.org/2000/svg" xmlns:xlink="http://www.w3.org/1999/xlink" contentStyleType="text/css" height="134px" preserveAspectRatio="none" style="width:297px;height:134px;background:#FFFFFF;" version="1.1" viewBox="0 0 297 134" width="297px" zoomAndPan="magnify"><defs/><g><rect fill="#FFA500" height="36.4883" rx="12.5" ry="12.5" style="stroke:#181818;stroke-width:1.5;" width="65" x="109" y="48.2441"/><text fill="#000000" font-family="sans-serif" font-size="14" lengthAdjust="spacing" textLength="45" x="119" y="71.7793">Colors</text><rect fill="#90EE90" height="36.4883" rx="12.5" ry="12.5" style="stroke:#181818;stroke-width:1.5;" width="61" x="224" y="20"/><text fill="#000000" font-family="sans-serif" font-size="14" lengthAdjust="spacing" textLength="41" x="234" y="43.5352">Green</text><path d="M174,66.4883 L184,66.4883 C199,66.4883 199,38.2441 214,38.2441 L224,38.2441 " fill="none" style="stroke:#181818;stroke-width:1.0;"/><rect fill="#FFBBCC" height="36.4883" rx="12.5" ry="12.5" style="stroke:#181818;stroke-width:1.5;" width="53" x="224" y="76.4883"/><text fill="#000000" font-family="sans-serif" font-size="14" lengthAdjust="spacing" textLength="33" x="234" y="100.0234">Rose</text><path d="M174,66.4883 L184,66.4883 C199,66.4883 199,94.7324 214,94.7324 L224,94.7324 " fill="none" style="stroke:#181818;stroke-width:1.0;"/><rect fill="#ADD8E6" height="36.4883" rx="12.5" ry="12.5" style="stroke:#181818;stroke-width:1.5;" width="49" x="10" y="48.2441"/><text fill="#000000" font-family="sans-serif" font-size="14" lengthAdjust="spacing" textLength="29" x="20" y="71.7793">Blue</text><path d="M109,66.4883 L99,66.4883 C84,66.4883 84,66.4883 69,66.4883 L59,66.4883 " fill="none" style="stroke:#181818;stroke-width:1.0;"/></g></svg>